<svg width="25" height="24" viewBox="0 0 25 24" fill="none" xmlns="http://www.w3.org/2000/svg">
<path d="M14.4927 11.1472H16.588C17.6342 11.1472 18.4822 11.9956 18.4822 13.0414V13.6878" stroke="#2758C3" stroke-miterlimit="10" stroke-linecap="round" stroke-linejoin="round"/>
<path d="M18.4823 15.3284V16.3564H7.11792V13.0414C7.11792 11.9956 7.96589 11.1472 9.01214 11.1472H11.0601" stroke="#2758C3" stroke-miterlimit="10" stroke-linecap="round" stroke-linejoin="round"/>
<path d="M13.9128 10.7691V9.58527" stroke="#2758C3" stroke-miterlimit="10" stroke-linecap="round" stroke-linejoin="round"/>
<path d="M11.6399 10.7691V9.58527" stroke="#2758C3" stroke-miterlimit="10" stroke-linecap="round" stroke-linejoin="round"/>
<path d="M8.96069 5.23031V3.54216C8.96069 1.78017 10.3893 0.351562 12.1513 0.351562H14.2443C14.8541 0.351562 15.4006 0.728484 15.6175 1.29862L15.7292 1.40231C16.3098 1.94025 16.6393 2.69503 16.6393 3.48628V5.262" stroke="#2758C3" stroke-miterlimit="10" stroke-linecap="round" stroke-linejoin="round"/>
<path d="M9.93335 5.21372H9.93522C12.7726 5.21372 13.6131 4.00055 13.6131 4.00055C13.6131 4.16724 13.5705 4.30739 13.516 4.41821C13.4511 4.55081 13.5619 4.70424 13.7087 4.68577C14.3229 4.60763 14.7955 4.36519 15.1165 4.13981L15.6175 5.21377H15.6194" stroke="#2758C3" stroke-miterlimit="10" stroke-linecap="round" stroke-linejoin="round"/>
<path d="M15.6174 6.98092H16.091C16.614 6.98092 17.038 6.55689 17.038 6.03385C17.038 5.51082 16.614 5.08679 16.091 5.08679C15.9183 5.08679 15.7568 5.13376 15.6174 5.21453" stroke="#2758C3" stroke-miterlimit="10" stroke-linecap="round" stroke-linejoin="round"/>
<path d="M9.93524 6.98092H9.46171C8.93868 6.98092 8.51465 6.55689 8.51465 6.03385C8.51465 5.51082 8.93868 5.08679 9.46171 5.08679C9.6344 5.08679 9.79584 5.13376 9.93524 5.21453" stroke="#2758C3" stroke-miterlimit="10" stroke-linecap="round" stroke-linejoin="round"/>
<path d="M9.9353 5.21362V6.9809C9.9353 8.55004 11.2073 9.82205 12.7764 9.82205C14.3455 9.82205 15.6176 8.55 15.6176 6.9809V5.21362" stroke="#2758C3" stroke-miterlimit="10" stroke-linecap="round" stroke-linejoin="round"/>
<path d="M21.4893 19.6708V18.2503H12.7764V16.3561" stroke="#2758C3" stroke-miterlimit="10" stroke-linecap="round" stroke-linejoin="round"/>
<path d="M4.06348 19.6708V18.2503H12.7763V16.3561" stroke="#2758C3" stroke-miterlimit="10" stroke-linecap="round" stroke-linejoin="round"/>
<path d="M12.7764 19.6708V18.2503" stroke="#2758C3" stroke-miterlimit="10" stroke-linecap="round" stroke-linejoin="round"/>
<path d="M23.8567 23.6484H19.1214C18.8076 23.6484 18.5532 23.3941 18.5532 23.0802V21.4703C18.5532 21.1564 18.8076 20.902 19.1214 20.902H23.8567C24.1705 20.902 24.4249 21.1564 24.4249 21.4703V23.0802C24.4249 23.3941 24.1705 23.6484 23.8567 23.6484Z" stroke="#2758C3" stroke-miterlimit="10" stroke-linecap="round" stroke-linejoin="round"/>
<path d="M12.7007 20.9019H15.1677C15.4813 20.9019 15.7358 21.1564 15.7358 21.4704V23.0801C15.7358 23.3942 15.4813 23.6483 15.1677 23.6483H10.4324C10.1188 23.6483 9.86426 23.3942 9.86426 23.0801V21.4704C9.86426 21.1564 10.1188 20.9019 10.4324 20.9019H11.06" stroke="#2758C3" stroke-miterlimit="10" stroke-linecap="round" stroke-linejoin="round"/>
<path d="M3.82208 23.6483H6.47849C6.79208 23.6483 7.04661 23.3942 7.04661 23.0801V21.4704C7.04661 21.1564 6.79208 20.9019 6.47849 20.9019H1.74317C1.42958 20.9019 1.17505 21.1564 1.17505 21.4704V23.0801C1.17505 23.3942 1.42958 23.6483 1.74317 23.6483H2.18146" stroke="#2758C3" stroke-miterlimit="10" stroke-linecap="round" stroke-linejoin="round"/>
</svg>
