<svg width="24" height="24" viewBox="0 0 24 24" fill="none" xmlns="http://www.w3.org/2000/svg">
<g clip-path="url(#clip0_821_6201)">
<path d="M13.8971 7.52715L10.2217 16.2848" stroke="#2758C3" stroke-miterlimit="10" stroke-linecap="round" stroke-linejoin="round"/>
<mask id="mask0_821_6201" style="mask-type:luminance" maskUnits="userSpaceOnUse" x="0" y="0" width="24" height="24">
<path d="M0 1.90735e-06H24V24H0V1.90735e-06Z" fill="white"/>
</mask>
<g mask="url(#mask0_821_6201)">
<path d="M11.142 9.00611C11.142 10.0483 10.4149 10.8932 9.51803 10.8932C8.62112 10.8932 7.89404 10.0483 7.89404 9.00611C7.89404 7.96389 8.62112 7.11897 9.51803 7.11897C10.4149 7.11897 11.142 7.96389 11.142 9.00611Z" stroke="#2758C3" stroke-miterlimit="10" stroke-linecap="round" stroke-linejoin="round"/>
<path d="M16.1059 14.9939C16.1059 16.0361 15.3788 16.881 14.4819 16.881C13.585 16.881 12.8579 16.0361 12.8579 14.9939C12.8579 13.9516 13.585 13.1067 14.4819 13.1067C15.3788 13.1067 16.1059 13.9516 16.1059 14.9939Z" stroke="#2758C3" stroke-miterlimit="10" stroke-linecap="round" stroke-linejoin="round"/>
<path d="M13.5811 1.21493C14.1048 2.02994 15.1623 2.3133 16.0234 1.8693C17.2395 1.24226 18.6967 2.08357 18.7618 3.45035C18.8078 4.41804 19.582 5.19218 20.5496 5.23826C21.9164 5.30327 22.7577 6.76047 22.1307 7.97665V7.97669C21.6867 8.83779 21.9701 9.89524 22.7851 10.419C23.9363 11.1587 23.9363 12.8413 22.7851 13.5811C21.9701 14.1048 21.6867 15.1622 22.1307 16.0233V16.0233C22.7577 17.2395 21.9164 18.6967 20.5496 18.7618C19.582 18.8078 18.8078 19.582 18.7618 20.5496C18.6967 21.9164 17.2395 22.7577 16.0234 22.1307C15.1623 21.6867 14.1048 21.9701 13.5811 22.7851C12.8413 23.9362 11.1587 23.9362 10.419 22.7851C9.89524 21.9701 8.83779 21.6867 7.9767 22.1307C6.76052 22.7577 5.30332 21.9164 5.23826 20.5496C5.19223 19.582 4.41809 18.8078 3.4504 18.7618C2.08362 18.6967 1.2423 17.2395 1.86935 16.0233V16.0233C2.3133 15.1622 2.02995 14.1048 1.21493 13.5811C0.0637735 12.8413 0.0637735 11.1587 1.21493 10.419C2.02995 9.89524 2.3133 8.83779 1.86935 7.97669V7.97665C1.2423 6.76047 2.08362 5.30327 3.4504 5.23826C4.41809 5.19218 5.19223 4.41804 5.23826 3.45035C5.30332 2.08357 6.76052 1.24226 7.9767 1.8693C8.83779 2.3133 9.89524 2.02994 10.419 1.21493C11.1587 0.0637723 12.8413 0.0637723 13.5811 1.21493Z" stroke="#2758C3" stroke-miterlimit="10" stroke-linecap="round" stroke-linejoin="round"/>
<path d="M5.69252 17.2022C4.52537 15.7887 3.82422 13.9762 3.82422 12C3.82422 7.48455 7.48469 3.82408 12.0001 3.82408C13.9757 3.82408 15.7875 4.52473 17.2007 5.69107" stroke="#2758C3" stroke-miterlimit="10" stroke-linecap="round" stroke-linejoin="round"/>
<path d="M18.3731 6.87799C19.501 8.27955 20.176 10.0609 20.176 12C20.176 16.5154 16.5155 20.1759 12.0001 20.1759C10.0569 20.1759 8.27206 19.498 6.86914 18.3658" stroke="#2758C3" stroke-miterlimit="10" stroke-linecap="round" stroke-linejoin="round"/>
</g>
</g>
<defs>
<clipPath id="clip0_821_6201">
<rect width="24" height="24" fill="white"/>
</clipPath>
</defs>
</svg>
