<svg width="25" height="24" viewBox="0 0 25 24" fill="none" xmlns="http://www.w3.org/2000/svg">
<g clip-path="url(#clip0_821_5737)">
<path d="M19.9678 12.1782C19.1184 12.5884 18.5073 13.4567 18.4174 14.486C18.405 14.6281 18.5187 14.75 18.6614 14.75H23.4797C23.6224 14.75 23.7361 14.6281 23.7237 14.486C23.6338 13.4567 23.0227 12.5884 22.1733 12.1782" stroke="#2758C3" stroke-miterlimit="10" stroke-linecap="round" stroke-linejoin="round"/>
<path d="M21.0707 12.5325C22.1176 12.5325 22.9663 11.6838 22.9663 10.6368C22.9663 9.58991 22.1176 8.74121 21.0707 8.74121C20.0237 8.74121 19.175 9.58991 19.175 10.6368C19.175 11.6838 20.0237 12.5325 21.0707 12.5325Z" stroke="#2758C3" stroke-miterlimit="10" stroke-linecap="round" stroke-linejoin="round"/>
<path d="M19.9678 3.78854C19.1184 4.1987 18.5073 5.06701 18.4174 6.09634C18.405 6.23847 18.5187 6.36029 18.6614 6.36029H19.5299" stroke="#2758C3" stroke-miterlimit="10" stroke-linecap="round" stroke-linejoin="round"/>
<path d="M21.1707 6.36032H23.4798C23.6225 6.36032 23.7362 6.2385 23.7238 6.09637C23.6339 5.06704 23.0228 4.19878 22.1735 3.78857" stroke="#2758C3" stroke-miterlimit="10" stroke-linecap="round" stroke-linejoin="round"/>
<path d="M21.0707 4.14281C22.1176 4.14281 22.9663 3.29411 22.9663 2.24719C22.9663 1.20026 22.1176 0.351562 21.0707 0.351562C20.0237 0.351562 19.175 1.20026 19.175 2.24719C19.175 3.29411 20.0237 4.14281 21.0707 4.14281Z" stroke="#2758C3" stroke-miterlimit="10" stroke-linecap="round" stroke-linejoin="round"/>
<path d="M19.9678 21.0767C19.1184 21.4868 18.5073 22.3551 18.4174 23.3845C18.405 23.5266 18.5187 23.6484 18.6614 23.6484H23.4797C23.6224 23.6484 23.7361 23.5266 23.7237 23.3845C23.6338 22.3551 23.0227 21.4868 22.1733 21.0767" stroke="#2758C3" stroke-miterlimit="10" stroke-linecap="round" stroke-linejoin="round"/>
<path d="M19.3789 20.3906C19.6915 21.0077 20.3313 21.4309 21.0704 21.4309C22.1173 21.4309 22.966 20.5822 22.966 19.5353C22.966 18.4884 22.1174 17.6397 21.0704 17.6397C20.3037 17.6397 19.6438 18.0951 19.3452 18.75" stroke="#2758C3" stroke-miterlimit="10" stroke-linecap="round" stroke-linejoin="round"/>
<path d="M9.11895 16.2569C9.11895 15.1194 9.78467 14.1376 10.7477 13.6792C10.2191 12.8937 9.48551 12.2744 8.62901 11.9097C8.11011 12.229 7.49942 12.4135 6.84547 12.4135C6.19147 12.4135 5.58073 12.229 5.06183 11.9097C3.44051 12.5999 2.25706 14.2019 2.07772 16.1179C2.05217 16.3909 2.27065 16.6257 2.54497 16.6257H9.14347C9.12786 16.5049 9.11895 16.382 9.11895 16.2569Z" stroke="#2758C3" stroke-miterlimit="10" stroke-linecap="round" stroke-linejoin="round"/>
<path d="M7.38365 13.7668H6.30721L5.71973 16.6258H7.97113L7.38365 13.7668Z" stroke="#2758C3" stroke-miterlimit="10" stroke-linecap="round" stroke-linejoin="round"/>
<path d="M6.84552 12.4135C6.45214 12.4135 6.07471 12.346 5.72314 12.2235L6.3073 13.7665L7.38369 13.7668L7.96789 12.2234C7.61633 12.346 7.23889 12.4135 6.84552 12.4135Z" stroke="#2758C3" stroke-miterlimit="10" stroke-linecap="round" stroke-linejoin="round"/>
<path d="M3.56491 9.92993C3.96818 11.3628 5.28368 12.4135 6.84546 12.4135C8.72801 12.4135 10.2541 10.8874 10.2541 9.00485C10.2541 7.1223 8.72801 5.59619 6.84546 5.59619C5.20844 5.59619 3.84152 6.75039 3.5127 8.28925" stroke="#2758C3" stroke-miterlimit="10" stroke-linecap="round" stroke-linejoin="round"/>
<path d="M12.9727 11.5V2.5083C12.9727 2.11999 13.2875 1.80518 13.6758 1.80518H17.3307" stroke="#2758C3" stroke-miterlimit="10" stroke-linecap="round" stroke-linejoin="round"/>
<path d="M12.9727 13.4999V22.0054C12.9727 22.3937 13.2875 22.7085 13.6758 22.7085H17.3307" stroke="#2758C3" stroke-miterlimit="10" stroke-linecap="round" stroke-linejoin="round"/>
</g>
<defs>
<clipPath id="clip0_821_5737">
<rect width="24" height="24" fill="white" transform="translate(0.400146)"/>
</clipPath>
</defs>
</svg>
