<svg width="25" height="24" viewBox="0 0 25 24" fill="none" xmlns="http://www.w3.org/2000/svg">
<mask id="mask0_821_6120" style="mask-type:luminance" maskUnits="userSpaceOnUse" x="0" y="0" width="25" height="24">
<path d="M0.666748 1.90735e-06H24.6667V24H0.666748V1.90735e-06Z" fill="white"/>
</mask>
<g mask="url(#mask0_821_6120)">
<path d="M1.1355 7.03125C1.1355 4.41853 2.67019 2.15752 4.8855 1.10245" stroke="#2758C3" stroke-miterlimit="10" stroke-linecap="round" stroke-linejoin="round"/>
<path d="M10.5105 1.10244C12.7258 2.15755 14.2605 4.41852 14.2605 7.03123" stroke="#2758C3" stroke-miterlimit="10" stroke-linecap="round" stroke-linejoin="round"/>
<path d="M14.2605 13.5938C13.225 13.5938 12.3855 12.7543 12.3855 11.7188V7.03125C12.3855 4.44239 10.2869 2.34375 7.698 2.34375C5.10914 2.34375 3.0105 4.44239 3.0105 7.03125V11.7188C3.0105 12.7543 2.17101 13.5938 1.1355 13.5938H14.2605Z" stroke="#2758C3" stroke-miterlimit="10" stroke-linecap="round" stroke-linejoin="round"/>
<path d="M3.0105 11.7188H12.3855" stroke="#2758C3" stroke-miterlimit="10" stroke-linecap="round" stroke-linejoin="round"/>
<path d="M20.448 17.0625V14.25C20.448 13.7322 20.0283 13.3125 19.5105 13.3125C18.9927 13.3125 18.573 13.7322 18.573 14.25" stroke="#2758C3" stroke-miterlimit="10" stroke-linecap="round" stroke-linejoin="round"/>
<path d="M22.323 17.0625V15.1875C22.323 14.6697 21.9033 14.25 21.3855 14.25C20.8677 14.25 20.448 14.6697 20.448 15.1875" stroke="#2758C3" stroke-miterlimit="10" stroke-linecap="round" stroke-linejoin="round"/>
<path d="M22.323 16.125C22.323 15.6072 22.7427 15.1875 23.2605 15.1875C23.7782 15.1875 24.198 15.605 24.198 16.1228C24.198 17.2577 24.198 19.0194 24.198 19.0022C24.1981 20.6862 23.3128 22.2644 21.9101 23.067C21.3757 23.3728 20.7613 23.5095 20.1454 23.5277C18.632 23.5725 17.2236 22.7473 16.433 21.456L13.405 16.5096C14.0861 15.7733 15.2766 15.8678 15.833 16.7025L16.698 18V10.5C16.698 9.98222 17.1177 9.5625 17.6355 9.5625C18.1533 9.5625 18.573 9.98222 18.573 10.5V17.0625" stroke="#2758C3" stroke-miterlimit="10" stroke-linecap="round" stroke-linejoin="round"/>
<path d="M6.7605 2.43752V1.40627C6.7605 0.888492 7.18022 0.468773 7.698 0.468773C8.21578 0.468773 8.6355 0.888492 8.6355 1.40627V2.43752" stroke="#2758C3" stroke-miterlimit="10" stroke-linecap="round" stroke-linejoin="round"/>
<path d="M8.6355 13.5938V14.5313C8.6355 15.049 8.21578 15.4688 7.698 15.4688C7.18022 15.4688 6.7605 15.049 6.7605 14.5313V13.5938" fill="#2758C3"/>
<path d="M8.6355 13.5938V14.5313C8.6355 15.049 8.21578 15.4688 7.698 15.4688C7.18022 15.4688 6.7605 15.049 6.7605 14.5313V13.5938" stroke="#2758C3" stroke-miterlimit="10" stroke-linecap="round" stroke-linejoin="round"/>
</g>
</svg>
