<svg width="24" height="24" viewBox="0 0 24 24" fill="none" xmlns="http://www.w3.org/2000/svg">
<g clip-path="url(#clip0_821_5807)">
<path d="M8.47102 15.529C9.83627 15.529 10.943 14.4223 10.943 13.057C10.943 11.6918 9.83627 10.585 8.47102 10.585C7.10578 10.585 5.99902 11.6918 5.99902 13.057C5.99902 14.4223 7.10578 15.529 8.47102 15.529Z" stroke="#2758C3" stroke-miterlimit="10"/>
<path d="M3.52686 20.4731C3.52686 17.7426 5.74039 15.5291 8.4709 15.5291C11.2014 15.5291 13.4149 17.7426 13.4149 20.4731H3.52686Z" stroke="#2758C3" stroke-miterlimit="10"/>
<path d="M16.2387 11.8227V23.2969H0.703125V7.76129H12.1774" stroke="#2758C3" stroke-miterlimit="10"/>
<path d="M3.52588 7.76368V4.93848H12.1782" stroke="#2758C3" stroke-miterlimit="10"/>
<path d="M19.0616 11.8218V20.4741H16.2388" stroke="#2758C3" stroke-miterlimit="10"/>
<path d="M17.6484 12C20.768 12 23.2969 9.47111 23.2969 6.35156C23.2969 3.23202 20.768 0.703125 17.6484 0.703125C14.5289 0.703125 12 3.23202 12 6.35156C12 9.47111 14.5289 12 17.6484 12Z" stroke="#2758C3" stroke-miterlimit="10"/>
<path d="M14.9211 5.82327L17.0915 7.99358L20.3782 4.70676" stroke="#2758C3" stroke-miterlimit="10"/>
</g>
<defs>
<clipPath id="clip0_821_5807">
<rect width="24" height="24" fill="white"/>
</clipPath>
</defs>
</svg>
