<svg width="24" height="20" viewBox="0 0 24 20" fill="none" xmlns="http://www.w3.org/2000/svg">
<path d="M15.0596 14.1016H2.30957C1.53613 14.1016 0.90332 13.4688 0.90332 12.6953V2.28906C0.90332 1.51562 1.53613 0.882812 2.30957 0.882812H17.8721C18.6455 0.882812 19.2783 1.51562 19.2783 2.28906V10.4688" stroke="#2758C3" stroke-miterlimit="22.926" stroke-linecap="round" stroke-linejoin="round"/>
<path d="M19.2783 19.1172C21.6019 19.1172 23.4971 17.222 23.4971 14.8984C23.4971 12.5748 21.6019 10.6797 19.2783 10.6797C16.9547 10.6797 15.0596 12.5748 15.0596 14.8984C15.0596 17.222 16.9547 19.1172 19.2783 19.1172Z" stroke="#2758C3" stroke-miterlimit="22.926" stroke-linecap="round" stroke-linejoin="round"/>
<path d="M18.2471 14.9219L19.1143 15.7891L20.8018 14.1016" stroke="#2758C3" stroke-miterlimit="22.926" stroke-linecap="round" stroke-linejoin="round"/>
<path d="M0.90332 6.22656H19.2783V3.41406H0.90332V6.22656Z" stroke="#2758C3" stroke-miterlimit="22.926" stroke-linecap="round" stroke-linejoin="round"/>
<path d="M3.71582 9.03909H5.47363" stroke="#2758C3" stroke-miterlimit="22.926" stroke-linecap="round" stroke-linejoin="round"/>
<path d="M3.71582 11.289H7.70019" stroke="#2758C3" stroke-miterlimit="22.926" stroke-linecap="round" stroke-linejoin="round"/>
</svg>
