<svg width="25" height="24" viewBox="0 0 25 24" fill="none" xmlns="http://www.w3.org/2000/svg">
<path d="M15.3107 19.2731C15.2655 19.3804 15.2097 19.4785 15.1446 19.5646C14.6463 20.226 13.7654 20.2101 12.8871 19.6402L9.625 17.521" stroke="#2758C3" stroke-miterlimit="10" stroke-linecap="round" stroke-linejoin="round"/>
<path d="M0.685059 22.316H4.81484C5.18421 22.316 5.48717 22.0139 5.48717 21.6454V18.6117M5.48717 16.9922V13.94C5.48717 13.5715 5.18421 13.2694 4.81484 13.2694H0.685059" stroke="#2758C3" stroke-miterlimit="10" stroke-linecap="round" stroke-linejoin="round"/>
<path d="M5.4873 21.0265C7.26251 21.0265 7.5522 21.2107 9.7526 22.5453C12.0009 23.9064 13.008 23.8838 15.0915 22.915L22.8541 19.3035C24.8433 18.3785 24.0154 15.8763 21.8203 16.7324L15.3108 19.273C15.7041 18.34 15.348 16.7019 14.1176 15.8961L12.923 15.1128C11.3312 14.0698 9.15598 13.3064 7.17879 14.0685L5.4873 14.7206" stroke="#2758C3" stroke-miterlimit="10" stroke-linecap="round" stroke-linejoin="round"/>
<path d="M7.59462 1.65694C7.26242 1.46081 6.8997 1.30837 6.51565 1.21031V0.771655C6.51565 0.562265 6.34423 0.391312 6.13296 0.391312H4.8574C4.64745 0.391312 4.47603 0.562265 4.47603 0.771655V1.21031C4.09203 1.30837 3.72926 1.46081 3.39706 1.65694L3.08482 1.3455C2.936 1.19841 2.69417 1.19841 2.54534 1.3455L1.64182 2.24667C1.49436 2.39376 1.49436 2.6363 1.64182 2.78475L1.95406 3.09619C1.75742 3.4275 1.60461 3.78933 1.50626 4.17103H1.06643C0.85648 4.17103 0.685059 4.34334 0.685059 4.55273V5.82506C0.685059 6.03576 0.85648 6.20676 1.06643 6.20676H1.50626C1.60461 6.58978 1.75742 6.95161 1.95406 7.28292L1.64182 7.59305C1.49436 7.7415 1.49436 7.98403 1.64182 8.13244L2.54539 9.03234C2.69421 9.1808 2.93604 9.1808 3.08487 9.03234L3.39711 8.7209C3.72931 8.91839 4.09203 9.06947 4.47607 9.16753V9.60623C4.47607 9.81562 4.6475 9.98794 4.85745 9.98794H6.13306C6.34432 9.98794 6.51575 9.81562 6.51575 9.60623V9.16753C6.89975 9.06947 7.26251 8.91839 7.59472 8.7209L7.90564 9.03234C8.05446 9.1808 8.29761 9.1808 8.44643 9.03234L9.34864 8.13244C9.49747 7.98398 9.49747 7.74145 9.34864 7.59305L9.0364 7.28292C9.2344 6.95161 9.38586 6.58978 9.4842 6.20676H9.92403C10.134 6.20676 10.3067 6.03581 10.3067 5.82506V4.55273C10.3067 4.34334 10.134 4.17103 9.92403 4.17103H9.4842C9.38586 3.78933 9.2344 3.42755 9.0364 3.09619L9.34864 2.78475C9.49747 2.6363 9.49747 2.39376 9.34864 2.24667L8.44643 1.34545C8.29761 1.19836 8.05446 1.19836 7.90564 1.34545L7.59462 1.65694Z" stroke="#2758C3" stroke-miterlimit="10" stroke-linecap="round" stroke-linejoin="round"/>
<path d="M5.49514 7.48036C4.22619 7.48036 3.19775 6.45454 3.19775 5.18887C3.19775 3.9232 4.22619 2.89739 5.49514 2.89739C6.7641 2.89739 7.79254 3.9232 7.79254 5.18887C7.79254 6.45454 6.7641 7.48036 5.49514 7.48036Z" stroke="#2758C3" stroke-miterlimit="10" stroke-linecap="round" stroke-linejoin="round"/>
<path d="M16.6659 5.18892V8.90775C16.6659 9.07739 16.525 9.21787 16.355 9.21787H14.1532C13.9818 9.21787 13.8423 9.0787 13.8423 8.90775V5.18892" stroke="#2758C3" stroke-miterlimit="10" stroke-linecap="round" stroke-linejoin="round"/>
<path d="M7.99316 13.8392V9.09726M10.3065 5.18892H21.4242C22.0235 5.18892 22.5151 5.67928 22.5151 6.27698V10.2874M22.4952 11.9812L22.5151 16.5641" stroke="#2758C3" stroke-miterlimit="10" stroke-linecap="round" stroke-linejoin="round"/>
<path d="M18.2632 13.8353H20.3639" stroke="#2758C3" stroke-miterlimit="10" stroke-linecap="round" stroke-linejoin="round"/>
<path d="M18.2632 15.2547H20.3639" stroke="#2758C3" stroke-miterlimit="10" stroke-linecap="round" stroke-linejoin="round"/>
</svg>
