<svg width="25" height="24" viewBox="0 0 25 24" fill="none" xmlns="http://www.w3.org/2000/svg">
<path d="M4.70025 16.5V16.6875C4.70025 17.0356 4.83854 17.3694 5.08468 17.6156C5.33082 17.8617 5.66466 18 6.01275 18H10.8878C11.2359 18 11.5697 17.8617 11.8158 17.6156C12.062 17.3694 12.2003 17.0356 12.2003 16.6875V16.5C12.2153 15.8529 12.015 15.2191 11.6309 14.6982C11.2467 14.1773 10.7004 13.7987 10.0778 13.6219C10.445 13.2925 10.7037 12.8593 10.8196 12.3798C10.9354 11.9002 10.9031 11.3968 10.7267 10.936C10.5503 10.4752 10.2383 10.0788 9.83184 9.79917C9.42538 9.51953 8.94362 9.36981 8.45025 9.36981C7.95689 9.36981 7.47513 9.51953 7.06867 9.79917C6.66221 10.0788 6.35017 10.4752 6.17381 10.936C5.99745 11.3968 5.96506 11.9002 6.08093 12.3798C6.1968 12.8593 6.45547 13.2925 6.82275 13.6219C6.2001 13.7987 5.6538 14.1773 5.26964 14.6982C4.88547 15.2191 4.68519 15.8529 4.70025 16.5ZM8.45025 10.125C8.78401 10.125 9.11027 10.224 9.38778 10.4094C9.66529 10.5948 9.88158 10.8584 10.0093 11.1667C10.137 11.4751 10.1704 11.8144 10.1053 12.1417C10.0402 12.4691 9.8795 12.7697 9.6435 13.0057C9.4075 13.2417 9.10681 13.4025 8.77947 13.4676C8.45213 13.5327 8.11283 13.4993 7.80448 13.3716C7.49613 13.2438 7.23257 13.0275 7.04715 12.75C6.86172 12.4725 6.76275 12.1463 6.76275 11.8125C6.76275 11.365 6.94054 10.9357 7.25701 10.6193C7.57348 10.3028 8.0027 10.125 8.45025 10.125ZM7.70025 14.25H9.20025C9.49755 14.2433 9.79312 14.297 10.0691 14.4077C10.3451 14.5184 10.5958 14.6839 10.8061 14.8942C11.0163 15.1045 11.1818 15.3552 11.2926 15.6311C11.4033 15.9071 11.4569 16.2027 11.4503 16.5V16.6875C11.4503 16.8367 11.391 16.9798 11.2855 17.0853C11.18 17.1907 11.0369 17.25 10.8878 17.25H6.01275C5.86357 17.25 5.7205 17.1907 5.61501 17.0853C5.50952 16.9798 5.45025 16.8367 5.45025 16.6875V16.5C5.44359 16.2027 5.49724 15.9071 5.60796 15.6311C5.71867 15.3552 5.88416 15.1045 6.09443 14.8942C6.30471 14.6839 6.55541 14.5184 6.8314 14.4077C7.10739 14.297 7.40296 14.2433 7.70025 14.25Z" fill="#2758C3"/>
<path d="M20.0752 13.875C19.9757 13.875 19.8804 13.9145 19.81 13.9848C19.7397 14.0552 19.7002 14.1505 19.7002 14.25V18.9375C19.7002 19.0867 19.6409 19.2298 19.5354 19.3352C19.43 19.4407 19.2869 19.5 19.1377 19.5H3.7627C3.61351 19.5 3.47044 19.4407 3.36495 19.3352C3.25946 19.2298 3.2002 19.0867 3.2002 18.9375V8.0625C3.2002 7.91332 3.25946 7.77024 3.36495 7.66475C3.47044 7.55926 3.61351 7.5 3.7627 7.5H12.0127C12.1122 7.5 12.2075 7.46049 12.2779 7.39017C12.3482 7.31984 12.3877 7.22446 12.3877 7.125C12.3877 7.02554 12.3482 6.93016 12.2779 6.85983C12.2075 6.78951 12.1122 6.75 12.0127 6.75H3.7627C3.4146 6.75 3.08076 6.88828 2.83462 7.13442C2.58848 7.38056 2.4502 7.7144 2.4502 8.0625V18.9375C2.4502 19.2856 2.58848 19.6194 2.83462 19.8656C3.08076 20.1117 3.4146 20.25 3.7627 20.25H19.1377C19.4858 20.25 19.8196 20.1117 20.0658 19.8656C20.3119 19.6194 20.4502 19.2856 20.4502 18.9375V14.25C20.4502 14.1505 20.4107 14.0552 20.3404 13.9848C20.27 13.9145 20.1747 13.875 20.0752 13.875Z" fill="#2758C3"/>
<path d="M19.747 6.86062L17.3882 9.21937L15.9032 7.73437C15.8329 7.66401 15.7374 7.62448 15.6379 7.62448C15.5384 7.62448 15.443 7.66401 15.3726 7.73437C15.3022 7.80474 15.2627 7.90017 15.2627 7.99968C15.2627 8.0992 15.3022 8.19463 15.3726 8.265L17.122 10.0144C17.1569 10.0495 17.1983 10.0773 17.244 10.0963C17.2897 10.1153 17.3387 10.125 17.3882 10.125C17.4875 10.1246 17.5826 10.0848 17.6526 10.0144L20.2776 7.38937C20.3421 7.31792 20.3767 7.2244 20.3741 7.12817C20.3716 7.03194 20.3321 6.94038 20.264 6.87243C20.1958 6.80448 20.1041 6.76536 20.0078 6.76316C19.9116 6.76096 19.8182 6.79586 19.747 6.86062Z" fill="#2758C3"/>
<path d="M22.3776 4.77562C22.3684 4.68902 22.3292 4.60834 22.267 4.54744C22.2047 4.48654 22.1232 4.44921 22.0364 4.44187C21.3211 4.34935 20.6228 4.15488 19.9626 3.86437C19.2808 3.58044 18.6456 3.1955 18.0783 2.72249C18.0091 2.65925 17.9188 2.62418 17.8251 2.62418C17.7315 2.62418 17.6412 2.65925 17.572 2.72249C17.0049 3.19571 16.3696 3.58067 15.6876 3.86437C15.031 4.15366 14.3365 4.3481 13.6251 4.44187C13.538 4.4488 13.4561 4.48594 13.3934 4.54688C13.3308 4.60782 13.2914 4.68872 13.282 4.77562C13.2651 4.93499 12.8901 8.67937 13.8164 10.5281C14.9245 12.7369 17.5664 13.9762 17.677 14.0287C17.7264 14.0516 17.7801 14.0634 17.8345 14.0634C17.8889 14.0634 17.9427 14.0516 17.992 14.0287C18.1026 13.9762 20.7445 12.7369 21.8526 10.5281C22.7695 8.67937 22.3945 4.93499 22.3776 4.77562ZM21.172 10.1925C20.3301 11.8744 18.3876 12.975 17.8251 13.2694C17.2626 12.975 15.3201 11.8744 14.4783 10.1925C13.7883 8.81249 13.927 6.05062 13.9945 5.14687C14.6779 5.02779 15.345 4.82893 15.982 4.55437C16.6387 4.27666 17.2579 3.9176 17.8251 3.48562C18.3924 3.9176 19.0116 4.27666 19.6683 4.55437C20.3053 4.82893 20.9724 5.02779 21.6558 5.14687C21.7251 6.05062 21.8639 8.81249 21.172 10.1925Z" fill="#2758C3"/>
<path d="M14.0752 18H17.8252C17.9247 18 18.02 17.9605 18.0904 17.8902C18.1607 17.8198 18.2002 17.7245 18.2002 17.625C18.2002 17.5255 18.1607 17.4302 18.0904 17.3598C18.02 17.2895 17.9247 17.25 17.8252 17.25H14.0752C13.9757 17.25 13.8804 17.2895 13.81 17.3598C13.7397 17.4302 13.7002 17.5255 13.7002 17.625C13.7002 17.7245 13.7397 17.8198 13.81 17.8902C13.8804 17.9605 13.9757 18 14.0752 18Z" fill="#2758C3"/>
<path d="M14.0752 15.75H16.3252C16.4247 15.75 16.52 15.7105 16.5904 15.6402C16.6607 15.5698 16.7002 15.4745 16.7002 15.375C16.7002 15.2755 16.6607 15.1802 16.5904 15.1098C16.52 15.0395 16.4247 15 16.3252 15H14.0752C13.9757 15 13.8804 15.0395 13.81 15.1098C13.7397 15.1802 13.7002 15.2755 13.7002 15.375C13.7002 15.4745 13.7397 15.5698 13.81 15.6402C13.8804 15.7105 13.9757 15.75 14.0752 15.75Z" fill="#2758C3"/>
</svg>
