<svg width="25" height="24" viewBox="0 0 25 24" fill="none" xmlns="http://www.w3.org/2000/svg">
<path d="M22.925 5.25H21.05V4.125C21.05 4.02554 21.0105 3.93016 20.9402 3.85984C20.8699 3.78951 20.7745 3.75 20.675 3.75H18.8V2.625C18.8 2.52554 18.7605 2.43016 18.6902 2.35984C18.6199 2.28951 18.5245 2.25 18.425 2.25H7.17505C7.07559 2.25 6.98021 2.28951 6.90988 2.35984C6.83956 2.43016 6.80005 2.52554 6.80005 2.625V3.75H4.92505C4.82559 3.75 4.73021 3.78951 4.65988 3.85984C4.58956 3.93016 4.55005 4.02554 4.55005 4.125V5.25H2.67505C2.57559 5.25 2.48021 5.28951 2.40988 5.35984C2.33956 5.43016 2.30005 5.52554 2.30005 5.625V14.625C2.30005 14.7245 2.33956 14.8198 2.40988 14.8902C2.48021 14.9605 2.57559 15 2.67505 15H4.55005V16.125C4.55005 16.2245 4.58956 16.3198 4.65988 16.3902C4.73021 16.4605 4.82559 16.5 4.92505 16.5H6.80005V17.625C6.80005 17.7245 6.83956 17.8198 6.90988 17.8902C6.98021 17.9605 7.07559 18 7.17505 18H11.675V21.375C11.675 21.4745 11.7146 21.5698 11.7849 21.6402C11.8552 21.7105 11.9506 21.75 12.05 21.75H13.55C13.6495 21.75 13.7449 21.7105 13.8152 21.6402C13.8855 21.5698 13.925 21.4745 13.925 21.375V18H18.425C18.5245 18 18.6199 17.9605 18.6902 17.8902C18.7605 17.8198 18.8 17.7245 18.8 17.625V16.5H20.675C20.7745 16.5 20.8699 16.4605 20.9402 16.3902C21.0105 16.3198 21.05 16.2245 21.05 16.125V15H22.925C23.0245 15 23.1199 14.9605 23.1902 14.8902C23.2605 14.8198 23.3 14.7245 23.3 14.625V5.625C23.3 5.52554 23.2605 5.43016 23.1902 5.35984C23.1199 5.28951 23.0245 5.25 22.925 5.25ZM3.05005 14.25V6H4.55005V14.25H3.05005ZM5.30005 15.75V4.5H6.80005V15.75H5.30005ZM13.175 21H12.425V17.25H13.175V21ZM12.8 13.875C12.0584 13.875 11.3333 13.6551 10.7167 13.243C10.1 12.831 9.61933 12.2453 9.3355 11.5601C9.05167 10.8748 8.97741 10.1208 9.1221 9.39341C9.2668 8.66598 9.62395 7.9978 10.1484 7.47335C10.6728 6.9489 11.341 6.59175 12.0685 6.44705C12.7959 6.30236 13.5499 6.37662 14.2351 6.66045C14.9203 6.94428 15.506 7.42493 15.9181 8.04161C16.3301 8.6583 16.55 9.38332 16.55 10.125C16.55 11.1196 16.155 12.0734 15.4517 12.7767C14.7484 13.4799 13.7946 13.875 12.8 13.875ZM18.05 17.25H13.925V16.875C13.925 16.7755 13.8855 16.6802 13.8152 16.6098C13.7449 16.5395 13.6495 16.5 13.55 16.5H13.175V14.625C14.332 14.5283 15.4068 13.9881 16.1748 13.1174C16.9428 12.2468 17.3446 11.113 17.2961 9.95299C17.2477 8.79302 16.7529 7.69664 15.915 6.893C15.0771 6.08936 13.961 5.64065 12.8 5.64065C11.6391 5.64065 10.523 6.08936 9.68512 6.893C8.84724 7.69664 8.35238 8.79302 8.30396 9.95299C8.25555 11.113 8.65732 12.2468 9.42532 13.1174C10.1933 13.9881 11.2681 14.5283 12.425 14.625V16.5H12.05C11.9506 16.5 11.8552 16.5395 11.7849 16.6098C11.7146 16.6802 11.675 16.7755 11.675 16.875V17.25H7.55005V3H18.05V17.25ZM20.3 15.75H18.8V4.5H20.3V15.75ZM22.55 14.25H21.05V6H22.55V14.25Z" fill="#2758C3"/>
<path d="M13.925 8.25C13.925 8.0275 13.8591 7.80999 13.7355 7.62498C13.6118 7.43998 13.4361 7.29578 13.2306 7.21064C13.025 7.12549 12.7988 7.10321 12.5806 7.14662C12.3623 7.19003 12.1619 7.29717 12.0046 7.45451C11.8472 7.61184 11.7401 7.8123 11.6967 8.03052C11.6533 8.24875 11.6755 8.47495 11.7607 8.68052C11.8458 8.88609 11.99 9.06179 12.175 9.1854C12.36 9.30902 12.5775 9.375 12.8 9.375C13.0984 9.375 13.3846 9.25647 13.5955 9.0455C13.8065 8.83452 13.925 8.54837 13.925 8.25ZM12.8 8.625C12.7259 8.625 12.6534 8.60301 12.5917 8.5618C12.53 8.5206 12.482 8.46203 12.4536 8.39351C12.4252 8.32498 12.4178 8.24958 12.4323 8.17684C12.4467 8.1041 12.4824 8.03728 12.5349 7.98484C12.5873 7.93239 12.6541 7.89668 12.7269 7.88221C12.7996 7.86774 12.875 7.87516 12.9436 7.90355C13.0121 7.93193 13.0706 7.97999 13.1119 8.04166C13.1531 8.10333 13.175 8.17583 13.175 8.25C13.175 8.34946 13.1355 8.44484 13.0652 8.51517C12.9949 8.58549 12.8995 8.625 12.8 8.625Z" fill="#2758C3"/>
<path d="M12.8 9.375C12.3028 9.375 11.8259 9.57254 11.4742 9.92417C11.1226 10.2758 10.925 10.7527 10.925 11.25V12.75C10.925 12.8495 10.9646 12.9448 11.0349 13.0152C11.1052 13.0855 11.2006 13.125 11.3 13.125H14.3C14.3995 13.125 14.4949 13.0855 14.5652 13.0152C14.6355 12.9448 14.675 12.8495 14.675 12.75V11.25C14.675 10.7527 14.4775 10.2758 14.1259 9.92417C13.7742 9.57254 13.2973 9.375 12.8 9.375ZM13.925 12.375H11.675V11.25C11.675 10.9516 11.7936 10.6655 12.0046 10.4545C12.2155 10.2435 12.5017 10.125 12.8 10.125C13.0984 10.125 13.3846 10.2435 13.5955 10.4545C13.8065 10.6655 13.925 10.9516 13.925 11.25V12.375Z" fill="#2758C3"/>
</svg>
