<svg width="24" height="24" viewBox="0 0 24 24" fill="none" xmlns="http://www.w3.org/2000/svg">
<g clip-path="url(#clip0_821_6073)">
<path d="M21.7158 13.6153V6.25339C21.7158 4.76282 20.5032 3.55002 19.0125 3.55002H18.6843V2.99193C18.6843 1.50107 17.4716 0.288269 15.981 0.288269H2.99166C1.50094 0.288269 0.28833 1.50107 0.28833 2.99193V16.9587C0.28833 18.4495 1.50094 19.6622 2.99166 19.6622H12.4724C13.1985 22.0052 15.3855 23.7117 17.964 23.7117C21.1331 23.7117 23.7115 21.1333 23.7115 17.964C23.7116 16.2279 22.9365 14.6703 21.7158 13.6153ZM1.04391 9.44404C1.53722 9.95755 2.22853 10.2776 2.99166 10.2776H5.90189C6.75516 10.2776 7.44924 10.9717 7.44924 11.8249C7.44924 12.678 6.75516 13.3723 5.90189 13.3723L2.99166 13.3726C1.96524 13.3726 1.11131 12.5704 1.04775 11.546C1.0471 11.5378 1.0448 11.5303 1.04391 11.5222V9.44404ZM2.99166 18.9066C1.91752 18.9066 1.04391 18.0328 1.04391 16.9587V13.293C1.53769 13.8071 2.22947 14.1282 2.99166 14.1282L5.90189 14.1278C7.17169 14.1278 8.20481 13.0948 8.20481 11.8248C8.20481 10.555 7.17169 9.52199 5.90189 9.52199H2.99166C1.95989 9.52199 1.10574 8.7156 1.04714 7.6858C1.04686 7.67886 1.04456 7.67235 1.04396 7.66546V2.99193C1.04396 1.91774 1.91756 1.04394 2.99171 1.04394H15.981C17.055 1.04394 17.9288 1.91774 17.9288 2.99193V3.55002H2.75414C2.54531 3.55002 2.37619 3.71919 2.37619 3.92788C2.37619 4.13661 2.54527 4.30574 2.75414 4.30574H19.0125C20.0865 4.30574 20.9602 5.17944 20.9602 6.25344V13.0615C20.0874 12.526 19.0613 12.2166 17.964 12.2166C14.7949 12.2166 12.2163 14.795 12.2163 17.964C12.2163 18.2852 12.2441 18.5997 12.2951 18.9066H2.99166ZM17.964 22.9561C15.2113 22.9561 12.972 20.7167 12.972 17.964C12.972 15.2114 15.2113 12.972 17.964 12.972C20.7165 12.972 22.9559 15.2114 22.9559 17.964C22.9559 20.7167 20.7165 22.9561 17.964 22.9561ZM18.3416 14.1259V17.964C18.3416 18.1728 18.1725 18.342 17.964 18.342H15.5236C15.3148 18.342 15.1458 18.1728 15.1458 17.964C15.1458 17.7555 15.3147 17.5863 15.5236 17.5863H17.5861V14.1259C17.5861 13.9173 17.7552 13.7482 17.964 13.7482C18.1725 13.7482 18.3416 13.9173 18.3416 14.1259Z" fill="#2758C3"/>
</g>
<defs>
<clipPath id="clip0_821_6073">
<rect width="24" height="24" fill="white"/>
</clipPath>
</defs>
</svg>
