<svg width="25" height="24" viewBox="0 0 25 24" fill="none" xmlns="http://www.w3.org/2000/svg">
<path d="M11.6425 17.4192C11.8408 17.4192 12.0016 17.2584 12.0016 17.0601C12.0016 16.8618 11.8408 16.701 11.6425 16.701C11.4442 16.701 11.2834 16.8618 11.2834 17.0601C11.2834 17.2584 11.4442 17.4192 11.6425 17.4192Z" fill="#2758C3"/>
<path d="M5.93316 7.07544C5.93316 6.88124 5.7758 6.72388 5.5816 6.72388H3.02466C2.83046 6.72388 2.6731 6.88124 2.6731 7.07544C2.6731 7.26964 2.83046 7.427 3.02466 7.427H5.5816C5.77575 7.427 5.93316 7.26964 5.93316 7.07544Z" fill="#2758C3"/>
<path d="M3.02466 8.23917C2.83046 8.23917 2.6731 8.39653 2.6731 8.59073C2.6731 8.78493 2.83046 8.94229 3.02466 8.94229H4.63458C4.82878 8.94229 4.98614 8.78493 4.98614 8.59073C4.98614 8.39653 4.82878 8.23917 4.63458 8.23917H3.02466Z" fill="#2758C3"/>
<path d="M16.283 6.72388C16.0888 6.72388 15.9314 6.88124 15.9314 7.07544V8.59067C15.9314 8.78488 16.0888 8.94224 16.283 8.94224H20.2605C20.4547 8.94224 20.6121 8.78488 20.6121 8.59067V7.07544C20.6121 6.88124 20.4547 6.72388 20.2605 6.72388H16.283ZM19.9089 8.23916H16.6345V7.42705H19.9089V8.23916Z" fill="#2758C3"/>
<path d="M1.50928 17.3381C1.70348 17.3381 1.86084 17.1808 1.86084 16.9866V5.91188H21.4241V9C21.4241 9.1942 21.5815 9.35156 21.7757 9.35156C21.9699 9.35156 22.1272 9.1942 22.1272 9L22.1273 1.77211C22.1273 1.57791 21.97 1.42055 21.7758 1.42055H20.328V1.10916C20.3279 0.497578 19.8304 0 19.2188 0C18.6072 0 18.1096 0.497578 18.1096 1.10916V1.42055H17.2975V1.10916C17.2975 0.497578 16.7999 0 16.1883 0C15.5767 0 15.0791 0.497578 15.0791 1.10916V1.42055H14.267V1.10916C14.267 0.497578 13.7694 0 13.1578 0C12.5462 0 12.0487 0.497578 12.0487 1.10916V1.42055H11.2365V1.10916C11.2365 0.497578 10.7389 0 10.1273 0C9.51571 0 9.01814 0.497578 9.01814 1.10916V1.42055H8.20603V1.10916C8.20603 0.497578 7.70845 0 7.09682 0C6.48525 0 5.98767 0.497578 5.98767 1.10916V1.42055H5.17556V1.10916C5.17551 0.497578 4.67793 0 4.06631 0C3.45478 0 2.95715 0.497578 2.95715 1.10916V1.42055H1.50942C1.31521 1.42055 1.15786 1.57791 1.15786 1.77211L1.15771 16.9866C1.15771 17.1807 1.31507 17.3381 1.50928 17.3381ZM18.8127 1.10916C18.8127 0.885281 18.9949 0.703125 19.2188 0.703125C19.4427 0.703125 19.6248 0.885281 19.6248 1.10916V2.43502C19.6248 2.65889 19.4427 2.84105 19.2188 2.84105C18.9949 2.84105 18.8127 2.65889 18.8127 2.43502V1.10916ZM15.7822 1.10916C15.7822 0.885281 15.9644 0.703125 16.1883 0.703125C16.4122 0.703125 16.5944 0.885281 16.5944 1.10916V2.43502C16.5944 2.65889 16.4122 2.84105 16.1883 2.84105C15.9644 2.84105 15.7822 2.65889 15.7822 2.43502V1.10916ZM12.7517 1.10916C12.7517 0.885281 12.9339 0.703125 13.1578 0.703125C13.3817 0.703125 13.5638 0.885281 13.5638 1.10916V2.43502C13.5638 2.65889 13.3817 2.84105 13.1578 2.84105H13.1578C12.9339 2.84105 12.7517 2.65889 12.7517 2.43502V1.10916ZM9.72126 1.10916C9.72126 0.885281 9.90347 0.703125 10.1273 0.703125C10.3512 0.703125 10.5334 0.885281 10.5334 1.10916V2.43502C10.5334 2.65889 10.3512 2.84105 10.1273 2.84105H10.1273C9.90342 2.84105 9.72126 2.65889 9.72126 2.43502V1.10916ZM6.69079 1.10916C6.69079 0.885281 6.87295 0.703125 7.09682 0.703125C7.3207 0.703125 7.5029 0.885281 7.5029 1.10916V2.43502C7.5029 2.65889 7.3207 2.84105 7.09682 2.84105C6.87295 2.84105 6.69079 2.65889 6.69079 2.43502V1.10916ZM3.66028 1.10916C3.66028 0.885281 3.84243 0.703125 4.06631 0.703125C4.29018 0.703125 4.47239 0.885281 4.47239 1.10916V2.43502C4.47239 2.65889 4.29018 2.84105 4.06631 2.84105C3.84243 2.84105 3.66028 2.65889 3.66028 2.43502V1.10916ZM1.86098 2.12367H2.95715V2.43506C2.95715 3.04664 3.45473 3.54422 4.06631 3.54422C4.67793 3.54422 5.17551 3.04664 5.17551 2.43506V2.12367H5.98762V2.43506C5.98762 3.04664 6.4852 3.54422 7.09678 3.54422C7.7084 3.54422 8.20598 3.04664 8.20598 2.43506V2.12367H9.01809V2.43506C9.01809 3.04664 9.51567 3.54422 10.1273 3.54422C10.7389 3.54422 11.2364 3.04664 11.2364 2.43506V2.12367H12.0486V2.43506C12.0486 3.04664 12.5461 3.54422 13.1578 3.54422C13.7693 3.54422 14.2669 3.04664 14.2669 2.43506V2.12367H15.079V2.43506C15.079 3.04664 15.5766 3.54422 16.1882 3.54422C16.7998 3.54422 17.2974 3.04664 17.2974 2.43506V2.12367H18.1095V2.43506C18.1095 3.04664 18.6071 3.54422 19.2187 3.54422C19.8303 3.54422 20.3279 3.04664 20.3279 2.43506V2.12367H21.4241V5.20866H1.86098V2.12367Z" fill="#2758C3"/>
<path d="M22.1272 14.9608V10.6406C22.1272 10.4464 21.9698 10.2891 21.7756 10.2891C21.5814 10.2891 21.4241 10.4464 21.4241 10.6406V14.355C20.5495 13.7249 19.477 13.3531 18.3191 13.3531C17.3072 13.3531 16.3604 13.637 15.554 14.1292L11.9393 8.4494C11.8747 8.34797 11.7629 8.28656 11.6427 8.28656C11.5226 8.28656 11.4107 8.34797 11.3461 8.44936L9.22317 11.785C9.11892 11.9488 9.1672 12.1661 9.33098 12.2703C9.49485 12.3746 9.71207 12.3263 9.81632 12.1625L11.6427 9.29287L14.9788 14.5348C13.7701 15.5115 12.9957 17.0051 12.9957 18.6765C12.9957 18.6855 12.9959 18.6945 12.996 18.7035H5.65364L8.93597 13.5463C9.04022 13.3824 8.99193 13.1651 8.82815 13.0609C8.66428 12.9566 8.44706 13.005 8.34281 13.1687L4.71661 18.8664C4.6477 18.9747 4.64329 19.1118 4.70503 19.2244C4.76671 19.3368 4.88489 19.4068 5.01318 19.4068H13.046C13.1669 20.2842 13.5022 21.094 13.9975 21.7815H1.86084V18.6272C1.86084 18.433 1.70348 18.2757 1.50928 18.2757C1.31507 18.2757 1.15771 18.433 1.15771 18.6272V22.133C1.15771 22.3272 1.31507 22.4846 1.50928 22.4846H14.6032C15.5632 23.4216 16.8748 24 18.3191 24C21.2545 24 23.6425 21.6119 23.6425 18.6765C23.6425 17.2323 23.0642 15.9208 22.1272 14.9608ZM18.3191 23.2969C15.7714 23.2969 13.6988 21.2242 13.6988 18.6765C13.6988 16.1289 15.7715 14.0563 18.3191 14.0563C20.8668 14.0563 22.9394 16.1289 22.9394 18.6765C22.9394 21.2242 20.8668 23.2969 18.3191 23.2969Z" fill="#2758C3"/>
<path d="M18.3192 14.8683C16.2193 14.8683 14.511 16.5766 14.511 18.6765C14.511 20.7763 16.2193 22.4847 18.3192 22.4847C20.4191 22.4847 22.1274 20.7763 22.1274 18.6765C22.1274 16.5766 20.4191 14.8683 18.3192 14.8683ZM18.3192 21.7816C16.607 21.7816 15.2141 20.3887 15.2141 18.6765C15.2141 16.9644 16.607 15.5715 18.3192 15.5715C20.0313 15.5715 21.4243 16.9644 21.4243 18.6765C21.4243 20.3887 20.0313 21.7816 18.3192 21.7816Z" fill="#2758C3"/>
<path d="M18.3191 17.0867C18.7431 17.0867 19.1421 17.2523 19.4427 17.5529C19.5801 17.6902 19.8027 17.6902 19.94 17.5529C20.0772 17.4156 20.0772 17.193 19.94 17.0557C19.5065 16.6223 18.9309 16.3836 18.3191 16.3836C17.0547 16.3836 16.0261 17.4122 16.0261 18.6765C16.0261 19.9409 17.0547 20.9695 18.3191 20.9695C18.9309 20.9695 19.5065 20.7308 19.94 20.2973C20.0772 20.16 20.0772 19.9374 19.9399 19.8002C19.8027 19.6629 19.58 19.6629 19.4427 19.8002C19.1422 20.1008 18.7431 20.2664 18.3191 20.2664C17.4425 20.2664 16.7292 19.5532 16.7292 18.6765C16.7292 17.7999 17.4425 17.0867 18.3191 17.0867Z" fill="#2758C3"/>
<path d="M11.6477 15.9542C11.8419 15.9542 11.9993 15.7969 11.9993 15.6027V11.9527C11.9993 11.7585 11.8419 11.6011 11.6477 11.6011C11.4535 11.6011 11.2961 11.7585 11.2961 11.9527V15.6027C11.2961 15.7969 11.4535 15.9542 11.6477 15.9542Z" fill="#2758C3"/>
</svg>
