<svg width="24" height="24" viewBox="0 0 24 24" fill="none" xmlns="http://www.w3.org/2000/svg">
<path d="M11.9999 8.61094C13.6637 8.61094 15.0125 7.26219 15.0125 5.59842C15.0125 3.93466 13.6637 2.58591 11.9999 2.58591C10.3362 2.58591 8.98743 3.93466 8.98743 5.59842C8.98743 7.26219 10.3362 8.61094 11.9999 8.61094Z" stroke="#2758C3" stroke-miterlimit="10" stroke-linecap="round" stroke-linejoin="round"/>
<path d="M4.09213 9.17578C5.28796 9.17578 6.25738 8.20636 6.25738 7.01053C6.25738 5.81469 5.28796 4.84528 4.09213 4.84528C2.8963 4.84528 1.92688 5.81469 1.92688 7.01053C1.92688 8.20636 2.8963 9.17578 4.09213 9.17578Z" stroke="#2758C3" stroke-miterlimit="10" stroke-linecap="round" stroke-linejoin="round"/>
<path d="M19.9078 9.17578C21.1036 9.17578 22.0731 8.20636 22.0731 7.01053C22.0731 5.81469 21.1036 4.84528 19.9078 4.84528C18.712 4.84528 17.7426 5.81469 17.7426 7.01053C17.7426 8.20636 18.712 9.17578 19.9078 9.17578Z" stroke="#2758C3" stroke-miterlimit="10" stroke-linecap="round" stroke-linejoin="round"/>
<path d="M16.5187 10.8703L12 8.61093L7.4812 10.8703V21.414H16.5187V10.8703Z" stroke="#2758C3" stroke-miterlimit="10" stroke-linecap="round" stroke-linejoin="round"/>
<path d="M7.48125 10.8703L4.09219 9.17578L0.703125 10.8703V18.7781H7.48125V10.8703Z" stroke="#2758C3" stroke-miterlimit="10" stroke-linecap="round" stroke-linejoin="round"/>
<path d="M23.2969 10.8703L19.9079 9.17578L16.5188 10.8703V18.7781H23.2969V10.8703Z" stroke="#2758C3" stroke-miterlimit="10" stroke-linecap="round" stroke-linejoin="round"/>
<path d="M12 18.4016L10.4938 16.8953L12 8.61093L13.5062 16.8953L12 18.4016Z" stroke="#2758C3" stroke-miterlimit="10" stroke-linecap="round" stroke-linejoin="round"/>
</svg>
