<svg width="24" height="24" viewBox="0 0 24 24" fill="none" xmlns="http://www.w3.org/2000/svg">
<g clip-path="url(#clip0_821_5022)">
<path d="M14.7219 0.510925V3.74999C14.7219 4.00888 14.9318 4.21874 15.1907 4.21874H18.4297" stroke="#2758C3" stroke-miterlimit="10" stroke-linejoin="round"/>
<path d="M11.9111 23.5312H18.0033C18.0445 23.5312 18.0844 23.5261 18.1224 23.5158" stroke="#2758C3" stroke-miterlimit="10" stroke-linecap="round" stroke-linejoin="round"/>
<path d="M18.4719 15.6689V4.41281C18.4719 4.28859 18.4222 4.16953 18.3346 4.08141L14.8593 0.606094C14.7711 0.517969 14.6521 0.46875 14.5279 0.46875H2.06567C1.80692 0.46875 1.59692 0.67875 1.59692 0.9375V23.0625C1.59692 23.3212 1.80692 23.5312 2.06567 23.5312H8.16102" stroke="#2758C3" stroke-miterlimit="10" stroke-linecap="round" stroke-linejoin="round"/>
<path d="M10.9203 5.35861C10.7282 5.07455 10.4031 4.88794 10.0344 4.88794C9.44833 4.88794 8.96594 5.37005 8.96594 5.95641C8.99866 7.10297 11.099 6.96521 11.1029 8.09335C11.1029 8.67942 10.6205 9.16181 10.0344 9.16181C9.66574 9.16181 9.34061 8.97521 9.14857 8.6911" stroke="#2758C3" stroke-miterlimit="10" stroke-linecap="round" stroke-linejoin="round"/>
<path d="M10.0344 4.39987V4.88793" stroke="#2758C3" stroke-miterlimit="10" stroke-linecap="round" stroke-linejoin="round"/>
<path d="M10.0344 9.16177V9.64988" stroke="#2758C3" stroke-miterlimit="10" stroke-linecap="round" stroke-linejoin="round"/>
<path d="M5.76868 11.9936H14.3" stroke="#2758C3" stroke-miterlimit="10" stroke-linecap="round" stroke-linejoin="round"/>
<path d="M5.76868 13.8686H14.3" stroke="#2758C3" stroke-miterlimit="10" stroke-linecap="round" stroke-linejoin="round"/>
<path d="M8.86255 17.7251H4.87817V19.6001H8.86255V17.7251Z" stroke="#2758C3" stroke-miterlimit="10" stroke-linecap="round" stroke-linejoin="round"/>
<path d="M14.5405 19.6003H11.2063V17.7253H15.0154" stroke="#2758C3" stroke-miterlimit="10" stroke-linejoin="round"/>
<path d="M21.2513 22.3798C22.7865 20.8446 22.7865 18.3556 21.2513 16.8204C19.7161 15.2852 17.2271 15.2852 15.6919 16.8204C14.1567 18.3556 14.1567 20.8446 15.6919 22.3798C17.2271 23.915 19.7161 23.915 21.2513 22.3798Z" stroke="#2758C3" stroke-miterlimit="10" stroke-linejoin="round"/>
<path d="M19.761 18.3111L17.1829 20.8892" stroke="#2758C3" stroke-miterlimit="10" stroke-linecap="round" stroke-linejoin="round"/>
<path d="M17.1829 18.3111L19.761 20.8892" stroke="#2758C3" stroke-miterlimit="10" stroke-linecap="round" stroke-linejoin="round"/>
</g>
<defs>
<clipPath id="clip0_821_5022">
<rect width="24" height="24" fill="white"/>
</clipPath>
</defs>
</svg>
