<svg width="24" height="24" viewBox="0 0 24 24" fill="none" xmlns="http://www.w3.org/2000/svg">
<mask id="mask0_821_4963" style="mask-type:luminance" maskUnits="userSpaceOnUse" x="0" y="0" width="24" height="24">
<path d="M0 1.90735e-06H24V24H0V1.90735e-06Z" fill="white"/>
</mask>
<g mask="url(#mask0_821_4963)">
<path d="M20.8466 5.46915H17.5771C16.5565 5.46915 15.729 4.64166 15.729 3.62105V0.351522" stroke="#2758C3" stroke-miterlimit="10" stroke-linecap="round" stroke-linejoin="round"/>
<path d="M14.9285 16.6809V13.9185C13.8162 13.3968 13.0455 12.2671 13.0455 10.957C13.0455 9.15046 14.5094 7.68655 16.316 7.68655C18.1221 7.68655 19.586 9.15046 19.586 10.957C19.586 12.2671 18.8154 13.3968 17.703 13.9185V16.6809" stroke="#2758C3" stroke-miterlimit="10" stroke-linecap="round" stroke-linejoin="round"/>
<path d="M21.5747 20.9756H11.1782C10.4402 20.9756 9.8418 21.5739 9.8418 22.312C9.8418 23.05 10.4402 23.6484 11.1782 23.6484H21.5747C22.3127 23.6484 22.911 23.05 22.911 22.312C22.911 21.5739 22.3127 20.9756 21.5747 20.9756Z" stroke="#2758C3" stroke-miterlimit="10" stroke-linecap="round" stroke-linejoin="round"/>
<path d="M19.9279 16.7077C20.8621 16.8624 21.5746 17.6742 21.5746 18.6521V20.9756H11.1782V18.6521C11.1782 17.5636 12.0609 16.681 13.1493 16.681H18.5221" stroke="#2758C3" stroke-miterlimit="10" stroke-linecap="round" stroke-linejoin="round"/>
<path d="M4.01527 0.351564H2.93715C1.91621 0.351564 1.08887 1.17891 1.08887 2.19985V21.8002C1.08887 22.8211 1.91621 23.6484 2.93715 23.6484H11.1782" stroke="#2758C3" stroke-miterlimit="10" stroke-linecap="round" stroke-linejoin="round"/>
<path d="M5.42151 0.351549H15.7289L20.8467 5.46936V17.123" stroke="#2758C3" stroke-miterlimit="10" stroke-linecap="round" stroke-linejoin="round"/>
<path d="M8.98028 12.3049L10.609 10.6762C10.8839 10.4013 10.8839 9.9558 10.609 9.68092L9.69807 8.77C9.42329 8.49522 8.9777 8.49522 8.70287 8.77L7.07415 10.3988L5.44539 8.77C5.17056 8.49522 4.72497 8.49522 4.45014 8.77L3.53922 9.68092C3.26443 9.9558 3.26443 10.4013 3.53922 10.6762L5.16798 12.3049L3.53922 13.9337C3.26443 14.2085 3.26443 14.6541 3.53922 14.929L4.45014 15.8399C4.72497 16.1147 5.17056 16.1147 5.44539 15.8399L7.07415 14.2111L8.70287 15.8399C8.9777 16.1147 9.42329 16.1147 9.69807 15.8399L10.609 14.929C10.8839 14.6541 10.8839 14.2085 10.609 13.9337L8.98028 12.3049Z" stroke="#2758C3" stroke-miterlimit="10" stroke-linecap="round" stroke-linejoin="round"/>
</g>
</svg>
