<svg width="24" height="24" viewBox="0 0 24 24" fill="none" xmlns="http://www.w3.org/2000/svg">
<g clip-path="url(#clip0_821_4935)">
<path d="M3.10135 15.9138C3.10135 16.3022 2.78653 16.617 2.39821 16.617C2.00989 16.617 1.69507 16.3022 1.69507 15.9138V10.1956C1.69507 9.4221 2.3279 8.78928 3.10135 8.78928H8.05462C8.82808 8.78928 9.46091 9.4221 9.46091 10.1956L9.46086 15.9138C9.46086 16.3022 9.14604 16.617 8.75772 16.617C8.36939 16.617 8.05457 16.3022 8.05457 15.9138" stroke="#2758C3" stroke-miterlimit="10" stroke-linecap="round" stroke-linejoin="round"/>
<path d="M3.10137 12.305L3.10132 22.7851C3.10132 23.2514 3.49831 23.6484 3.98803 23.6484C4.47774 23.6484 4.87478 23.2514 4.87478 22.7617L4.87483 15.9138H6.28112L6.28107 22.7617C6.28107 23.2514 6.67807 23.6484 7.16783 23.6484C7.65759 23.6484 8.05454 23.2514 8.05454 22.7851V10.1956" stroke="#2758C3" stroke-miterlimit="10" stroke-linecap="round" stroke-linejoin="round"/>
<path d="M3.10144 10.1956V10.8987" stroke="#2758C3" stroke-miterlimit="10" stroke-linecap="round" stroke-linejoin="round"/>
<path d="M5.56255 7.38298C6.72756 7.38298 7.67198 6.43856 7.67198 5.27355C7.67198 4.10855 6.72756 3.16412 5.56255 3.16412C4.39755 3.16412 3.45312 4.10855 3.45312 5.27355C3.45312 6.43856 4.39755 7.38298 5.56255 7.38298Z" stroke="#2758C3" stroke-miterlimit="10" stroke-linecap="round" stroke-linejoin="round"/>
<path d="M18.9044 4.78233L17.7382 4.61287L17.2166 3.55605C16.9587 3.03352 16.2136 3.03352 15.9556 3.55605L15.434 4.61287L14.2678 4.78233C13.6911 4.86615 13.4608 5.57477 13.8781 5.98157L14.7221 6.8042L14.5229 7.96579C14.4244 8.54011 15.0272 8.97813 15.543 8.70695L16.5862 8.15854L17.6294 8.70695C18.1451 8.97813 18.748 8.54011 18.6495 7.96579L18.4503 6.8042L19.2942 5.98157C19.7114 5.57482 19.4811 4.86615 18.9044 4.78233Z" stroke="#2758C3" stroke-miterlimit="10" stroke-linecap="round" stroke-linejoin="round"/>
<path d="M10.8672 6.67985V13.1005C10.8672 13.7269 11.6246 14.0406 12.0675 13.5977L14.0633 11.6018H20.8987C21.6754 11.6018 22.305 10.9723 22.305 10.1956V1.75785C22.305 0.981157 21.6754 0.351562 20.8987 0.351562H12.2735C11.4968 0.351562 10.8672 0.981157 10.8672 1.75785V5.27356" stroke="#2758C3" stroke-miterlimit="10" stroke-linecap="round" stroke-linejoin="round"/>
</g>
<defs>
<clipPath id="clip0_821_4935">
<rect width="24" height="24" fill="white"/>
</clipPath>
</defs>
</svg>
