<svg xmlns="http://www.w3.org/2000/svg" width="32" height="32" viewBox="0 0 32 32">
  <g id="Group_17267" data-name="Group 17267" transform="translate(0 0)">
    <g id="Group_17678" data-name="Group 17678" transform="translate(0 0)">
      <path id="Path_2630" data-name="Path 2630" d="M50.757,32H28.3a.614.614,0,0,1-.6-.626V27.022a.6.6,0,1,1,1.2,0v3.727H50.155V7.015L44.85,1.253H28.9v3.9a.6.6,0,1,1-1.2,0V.627A.614.614,0,0,1,28.3,0h16.8a.59.59,0,0,1,.435.193l5.65,6.137a.639.639,0,0,1,.167.433V31.375a.614.614,0,0,1-.6.626" transform="translate(-19.365 -0.001)" fill="#0032a0"/>
      <path id="Path_2631" data-name="Path 2631" d="M89.8,7.389H84.146a.614.614,0,0,1-.6-.626V.626a.626.626,0,0,1,.378-.581.585.585,0,0,1,.659.148l5.6,6.086a.634.634,0,0,1,.22.484.614.614,0,0,1-.6.626M84.748,6.137h3.639L84.748,2.185Z" transform="translate(-58.404 0)" fill="#0032a0"/>
      <path id="Path_2632" data-name="Path 2632" d="M15,45.25a.589.589,0,0,1-.426-.183l-3.895-4.05a.643.643,0,0,1,0-.885l1.8-1.87a.585.585,0,0,1,.851,0L15,40l4.232-4.4a.586.586,0,0,1,.851,0l1.8,1.87a.644.644,0,0,1,0,.885l-6.451,6.71A.59.59,0,0,1,15,45.25Zm-3.043-4.675L15,43.738,20.6,37.909l-.947-.984-4.232,4.4a.585.585,0,0,1-.851,0L12.906,39.59Z" transform="translate(-7.343 -24.331)" fill="#0032a0"/>
      <path id="Path_2633" data-name="Path 2633" d="M71.276,32.023H63.629a.626.626,0,0,1,0-1.252h7.647a.626.626,0,0,1,0,1.252" transform="translate(-44.061 -21.142)" fill="#0032a0"/>
      <path id="Path_2634" data-name="Path 2634" d="M80.158,45.863H76.335a.626.626,0,0,1,0-1.252h3.824a.626.626,0,0,1,0,1.252" transform="translate(-52.943 -30.651)" fill="#0032a0"/>
      <path id="Path_2635" data-name="Path 2635" d="M80.158,54.895H76.335a.626.626,0,0,1,0-1.252h3.824a.626.626,0,0,1,0,1.252" transform="translate(-52.943 -36.857)" fill="#0032a0"/>
      <path id="Path_2636" data-name="Path 2636" d="M76.8,63.926H71.534a.626.626,0,0,1,0-1.252H76.8a.626.626,0,0,1,0,1.252" transform="translate(-49.587 -43.062)" fill="#0032a0"/>
      <path id="Path_2637" data-name="Path 2637" d="M71.276,72.958H63.629a.626.626,0,0,1,0-1.252h7.647a.626.626,0,0,1,0,1.252" transform="translate(-44.061 -49.267)" fill="#0032a0"/>
      <path id="Path_2638" data-name="Path 2638" d="M84.6,81.99H82.687a.626.626,0,0,1,0-1.252H84.6a.626.626,0,0,1,0,1.252" transform="translate(-57.384 -55.473)" fill="#0032a0"/>
      <path id="Path_2639" data-name="Path 2639" d="M8.938,40.455A9.132,9.132,0,0,1,0,31.161a9.132,9.132,0,0,1,8.938-9.295,9.132,9.132,0,0,1,8.938,9.295,9.132,9.132,0,0,1-8.938,9.294m0-17.337a8.049,8.049,0,0,0,0,16.085,8.049,8.049,0,0,0,0-16.085" transform="translate(0 -15.024)" fill="#0032a0"/>
    </g>
  </g>
</svg>
