<svg xmlns="http://www.w3.org/2000/svg" width="106.096" height="81.468" viewBox="0 0 106.096 81.468">
  <g id="Group_17679" data-name="Group 17679" transform="translate(-740.86 -243.546)">
    <g id="Group_17679-2" data-name="Group 17679">
      <path id="Icon_ionic-ios-checkmark" data-name="Icon ionic-ios-checkmark" d="M29.385,12.206a.355.355,0,0,0-.274.117L17.182,24.341,12.84,20a.378.378,0,0,0-.548,0L10.552,21.74a.39.39,0,0,0,0,.557l5.476,5.476a1.732,1.732,0,0,0,1.144.557,1.815,1.815,0,0,0,1.134-.538h.01L31.39,14.651a.418.418,0,0,0-.01-.557l-1.721-1.77a.37.37,0,0,0-.274-.117m0-3a3.363,3.363,0,0,1,2.451,1.053l1.687,1.735a3.371,3.371,0,0,1,.968,2.334,3.446,3.446,0,0,1-.785,2.23l-.09.109L19.563,30.793h-.327a4.373,4.373,0,0,1-2.064.538,4.7,4.7,0,0,1-3.265-1.436L8.43,24.419a3.4,3.4,0,0,1,0-4.8l1.741-1.741a3.378,3.378,0,0,1,4.79,0l2.213,2.213,9.777-9.849A3.363,3.363,0,0,1,29.385,9.206Z" transform="translate(770.537 266.147)" fill="#0032a0"/>
      <path id="Polygon_4" data-name="Polygon 4" d="M29.5,6.069a.981.981,0,0,0-.707.293L25.986,9.167A8.941,8.941,0,0,1,19.625,11.8c-.262,0-.528-.012-.789-.035l-3.955-.348c-.031,0-.063,0-.093,0a1,1,0,0,0-.991.914l-.342,3.931a8.977,8.977,0,0,1-3.815,6.6L6.4,25.119a1,1,0,0,0-.246,1.395L8.42,29.738A8.977,8.977,0,0,1,9.746,37.25l-1.024,3.8a1,1,0,0,0,.708,1.226L13.258,43.3a8.978,8.978,0,0,1,5.837,4.892l1.673,3.586a1.009,1.009,0,0,0,.91.579.986.986,0,0,0,.419-.095l3.6-1.679a9,9,0,0,1,7.606,0l3.6,1.679a.986.986,0,0,0,.419.095,1.009,1.009,0,0,0,.91-.579l1.673-3.586A8.978,8.978,0,0,1,45.742,43.3l3.827-1.021a1,1,0,0,0,.708-1.226l-1.024-3.8a8.977,8.977,0,0,1,1.326-7.512l2.265-3.224a1,1,0,0,0-.246-1.395l-3.238-2.26a8.977,8.977,0,0,1-3.815-6.6L45.2,12.328a1,1,0,0,0-.99-.914c-.031,0-.062,0-.094,0l-3.955.348c-.261.023-.527.035-.789.035a8.941,8.941,0,0,1-6.362-2.634L30.207,6.362a.981.981,0,0,0-.707-.293m0-4a4.984,4.984,0,0,1,3.535,1.464l2.807,2.805a5,5,0,0,0,3.973,1.444l3.955-.348a5,5,0,0,1,5.419,4.547l.342,3.931a5,5,0,0,0,2.119,3.667l3.238,2.26a5,5,0,0,1,1.23,6.974l-2.265,3.224a5,5,0,0,0-.737,4.173l1.024,3.8a5,5,0,0,1-3.539,6.13l-3.827,1.021a5,5,0,0,0-3.243,2.718l-1.673,3.586a5,5,0,0,1-6.644,2.418l-3.6-1.679a5,5,0,0,0-4.226,0l-3.6,1.679a5,5,0,0,1-6.644-2.418l-1.673-3.586a5,5,0,0,0-3.243-2.718L8.4,46.144a5,5,0,0,1-3.539-6.13l1.024-3.8a5,5,0,0,0-.737-4.173L2.882,28.813a5,5,0,0,1,1.23-6.974l3.238-2.26a5,5,0,0,0,2.119-3.667l.342-3.931a5,5,0,0,1,5.419-4.547l3.955.348a5,5,0,0,0,3.973-1.444l2.807-2.805A4.984,4.984,0,0,1,29.5,2.069Z" transform="translate(762 257.203)" fill="#0032a0"/>
    </g>
    <path id="Icon_weather-stars" data-name="Icon weather-stars" d="M6.444,19.416a2.827,2.827,0,0,0,1.98-.9A2.82,2.82,0,0,0,9.24,16.5a2.912,2.912,0,0,0,2.784,2.916A2.912,2.912,0,0,0,9.24,22.332a2.771,2.771,0,0,0-.816-2.016A2.827,2.827,0,0,0,6.444,19.416Zm2.8-8.64a5.515,5.515,0,0,0,3.852-1.764,5.493,5.493,0,0,0,1.584-3.936A5.493,5.493,0,0,0,16.26,9.012a5.569,5.569,0,0,0,3.864,1.764,5.562,5.562,0,0,0-2.748.852A5.767,5.767,0,0,0,15.4,13.7a5.643,5.643,0,0,0-.72,2.8,5.521,5.521,0,0,0-1.584-3.948A5.479,5.479,0,0,0,9.24,10.776ZM13.224,23.7a4.286,4.286,0,0,0,4.092-4.284A4.287,4.287,0,0,0,21.4,23.7a4.287,4.287,0,0,0-4.08,4.284,4.133,4.133,0,0,0-1.188-2.964A4.2,4.2,0,0,0,13.224,23.7ZM21.4,18.012a4.266,4.266,0,0,0,4.068-4.3A4.286,4.286,0,0,0,29.556,18a4.286,4.286,0,0,0-4.092,4.284A4.244,4.244,0,0,0,21.4,18.012Z" transform="translate(817.4 297.03)" fill="#0032a0"/>
    <path id="Icon_weather-stars-2" data-name="Icon weather-stars" d="M6.444,19.416a2.827,2.827,0,0,0,1.98-.9A2.82,2.82,0,0,0,9.24,16.5a2.912,2.912,0,0,0,2.784,2.916A2.912,2.912,0,0,0,9.24,22.332a2.771,2.771,0,0,0-.816-2.016A2.827,2.827,0,0,0,6.444,19.416Zm2.8-8.64a5.515,5.515,0,0,0,3.852-1.764,5.493,5.493,0,0,0,1.584-3.936A5.493,5.493,0,0,0,16.26,9.012a5.569,5.569,0,0,0,3.864,1.764,5.562,5.562,0,0,0-2.748.852A5.767,5.767,0,0,0,15.4,13.7a5.643,5.643,0,0,0-.72,2.8,5.521,5.521,0,0,0-1.584-3.948A5.479,5.479,0,0,0,9.24,10.776ZM13.224,23.7a4.286,4.286,0,0,0,4.092-4.284A4.287,4.287,0,0,0,21.4,23.7a4.287,4.287,0,0,0-4.08,4.284,4.133,4.133,0,0,0-1.188-2.964A4.2,4.2,0,0,0,13.224,23.7ZM21.4,18.012a4.266,4.266,0,0,0,4.068-4.3A4.286,4.286,0,0,0,29.556,18a4.286,4.286,0,0,0-4.092,4.284A4.244,4.244,0,0,0,21.4,18.012Z" transform="translate(734.416 238.47)" fill="#0032a0"/>
  </g>
</svg>
