<svg xmlns="http://www.w3.org/2000/svg" width="18" height="18.006" viewBox="0 0 18 18.006">
  <g id="Active" transform="translate(-42.999 -183.997)">
    <g id="Icon_feather-check-circle" data-name="Icon feather-check-circle" transform="translate(41 182.009)">
      <path id="Path_4697" data-name="Path 4697" d="M11,19.994A9,9,0,1,1,14.663,2.77,1,1,0,1,1,13.849,4.6,7,7,0,1,0,18,11V10.26a1,1,0,0,1,2,0V11a9.014,9.014,0,0,1-9,9Z" fill="#fff"/>
      <path id="Path_4698" data-name="Path 4698" d="M15.9,15.008a1,1,0,0,1-.707-.293l-2.4-2.4A1,1,0,0,1,14.207,10.9L15.9,12.593l7.293-7.3a1,1,0,1,1,1.415,1.414l-8,8.008A1,1,0,0,1,15.9,15.008Z" transform="translate(-4.9 -1.404)" fill="#fff"/>
    </g>
  </g>
</svg>
