<svg xmlns="http://www.w3.org/2000/svg" width="16" height="16" viewBox="0 0 16 16">
  <g id="All_trns" data-name="All trns" transform="translate(-43 -269.5)">
    <path id="Icon_awesome-list" data-name="Icon awesome-list" d="M2.949,15.683H.59A.6.6,0,0,0,0,16.3V18.76a.6.6,0,0,0,.59.615H2.949a.6.6,0,0,0,.59-.615V16.3A.6.6,0,0,0,2.949,15.683Zm0-12.308H.59A.6.6,0,0,0,0,3.99V6.452a.6.6,0,0,0,.59.615H2.949a.6.6,0,0,0,.59-.615V3.99A.6.6,0,0,0,2.949,3.375Zm0,6.154H.59a.6.6,0,0,0-.59.615v2.462a.6.6,0,0,0,.59.615H2.949a.6.6,0,0,0,.59-.615V10.144A.6.6,0,0,0,2.949,9.529ZM15.41,16.3H6.488a.6.6,0,0,0-.59.615v1.231a.6.6,0,0,0,.59.615H15.41a.6.6,0,0,0,.59-.615V16.913A.6.6,0,0,0,15.41,16.3Zm0-12.308H6.488a.6.6,0,0,0-.59.615V5.837a.6.6,0,0,0,.59.615H15.41A.6.6,0,0,0,16,5.837V4.606A.6.6,0,0,0,15.41,3.99Zm0,6.154H6.488a.6.6,0,0,0-.59.615V11.99a.6.6,0,0,0,.59.615H15.41A.6.6,0,0,0,16,11.99V10.76A.6.6,0,0,0,15.41,10.144Z" transform="translate(43 266.125)" fill="#fff"/>
  </g>
</svg>
