<svg xmlns="http://www.w3.org/2000/svg" xmlns:xlink="http://www.w3.org/1999/xlink" width="40.215" height="29.063" viewBox="0 0 40.215 29.063">
  <defs>
    <clipPath id="clip-path">
      <rect id="Rectangle_2538" data-name="Rectangle 2538" width="40.215" height="29.063" fill="#0032a0"/>
    </clipPath>
  </defs>
  <g id="Group_17265" data-name="Group 17265" transform="translate(0 0)">
    <g id="Group_17241" data-name="Group 17241" transform="translate(0 0)" clip-path="url(#clip-path)">
      <path id="Path_2643" data-name="Path 2643" d="M54.657,34.621a.774.774,0,0,1-.473-.162l-3.1-2.4a.773.773,0,0,1,.947-1.223L54.568,32.8l5.27-5.75a.773.773,0,1,1,1.14,1.044l-5.75,6.275a.772.772,0,0,1-.571.251" transform="translate(-31.152 -16.441)" fill="#0032a0"/>
      <path id="Path_2644" data-name="Path 2644" d="M36.5,29.063H3.713A3.717,3.717,0,0,1,0,25.35V3.713A3.718,3.718,0,0,1,3.713,0H36.5a3.718,3.718,0,0,1,3.713,3.713V25.35A3.717,3.717,0,0,1,36.5,29.063M3.713,1.546A2.17,2.17,0,0,0,1.546,3.713V25.35a2.17,2.17,0,0,0,2.167,2.167H36.5a2.17,2.17,0,0,0,2.167-2.167V3.713A2.17,2.17,0,0,0,36.5,1.546Z" transform="translate(0 0)" fill="#0032a0"/>
      <path id="Path_2645" data-name="Path 2645" d="M40.78,16.772c.011-.007.019-.015.03-.022s.038-.023.056-.037l.037-.032,0,0a2.218,2.218,0,0,0,1-1.808,1.972,1.972,0,0,0-1.061-1.5c-.412-.336-.448-.513-.451-.513s.052-.133.384-.333c.011-.007.019-.015.03-.022s.038-.023.056-.037l.037-.032,0,0a2.218,2.218,0,0,0,1-1.808A1.942,1.942,0,0,0,40.9,9.145,2.158,2.158,0,0,0,39.14,8.2a1.971,1.971,0,0,0-1.5,1.061c-.338.414-.514.448-.513.45s-.133-.053-.333-.384c-.009-.015-.021-.027-.031-.042s-.017-.03-.029-.043-.021-.024-.032-.037l0,0a2.2,2.2,0,0,0-1.808-1,1.971,1.971,0,0,0-1.5,1.061c-.338.414-.514.449-.513.451s-.133-.053-.333-.384c-.009-.015-.021-.027-.031-.041s-.017-.03-.029-.044-.022-.025-.033-.038l0,0a2.2,2.2,0,0,0-1.808-1,1.971,1.971,0,0,0-1.5,1.061c-.338.414-.514.449-.513.451s-.133-.053-.333-.384c-.009-.015-.021-.027-.031-.042s-.017-.03-.029-.043-.021-.024-.032-.037l0,0a2.2,2.2,0,0,0-1.808-1,1.971,1.971,0,0,0-1.5,1.061c-.338.414-.514.449-.513.451s-.133-.053-.333-.384C24.022,9.317,24.01,9.3,24,9.29s-.017-.03-.028-.043-.022-.024-.032-.037l0,0a2.2,2.2,0,0,0-1.808-1,1.971,1.971,0,0,0-1.5,1.061c-.338.414-.514.449-.513.451s-.133-.053-.333-.384c-.009-.015-.021-.027-.031-.041s-.017-.03-.029-.044l-.033-.039,0,0a2.2,2.2,0,0,0-1.808-1,1.971,1.971,0,0,0-1.5,1.061c-.338.414-.514.449-.513.451s-.133-.053-.333-.384c-.009-.015-.021-.027-.031-.042s-.017-.03-.028-.043-.022-.024-.032-.037l0,0a2.2,2.2,0,0,0-1.808-1,1.971,1.971,0,0,0-1.5,1.061c-.338.414-.514.449-.513.451s-.133-.053-.333-.384c-.009-.015-.021-.027-.031-.042s-.017-.03-.028-.043-.022-.024-.032-.037l0,0a2.2,2.2,0,0,0-1.808-1,1.919,1.919,0,0,0-1.443.969,1.919,1.919,0,0,0-.969,1.443,2.217,2.217,0,0,0,1,1.807l.005,0c.013.01.023.021.036.032s.036.024.054.036.02.017.031.024c.329.2.381.324.383.324h0c0,.009-.038.186-.45.522a1.972,1.972,0,0,0-1.061,1.5,2.217,2.217,0,0,0,1,1.807l.005,0c.013.01.023.021.036.032s.036.024.054.036.02.017.031.024c.329.2.381.324.383.324h0c0,.009-.038.186-.45.522a1.972,1.972,0,0,0-1.061,1.5,2.217,2.217,0,0,0,1,1.807l.005,0c.013.01.023.021.036.032s.036.024.054.036.02.017.031.024c.329.2.381.324.383.324h0c0,.009-.038.186-.45.522a1.972,1.972,0,0,0-1.061,1.5,2.217,2.217,0,0,0,1,1.807l.005,0c.013.01.023.021.036.032s.036.024.054.036.02.017.031.024c.329.2.381.324.383.324h0c0,.01-.037.188-.456.528A2.155,2.155,0,0,0,6.958,27.8a2.423,2.423,0,0,0,.936,1.983A1.946,1.946,0,0,0,9.368,30.8c.034,0,.069,0,.1,0a2.322,2.322,0,0,0,1.741-1.045c.015-.019.025-.039.037-.058s.016-.017.022-.027c.2-.329.325-.382.324-.383s.186.038.522.45a1.971,1.971,0,0,0,1.5,1.061c.034,0,.069,0,.1,0a2.322,2.322,0,0,0,1.741-1.045c.015-.019.025-.039.037-.058s.016-.017.022-.027c.2-.329.325-.382.324-.383s.186.038.522.45a1.971,1.971,0,0,0,1.5,1.061c.034,0,.069,0,.1,0a2.322,2.322,0,0,0,1.741-1.045c.015-.019.025-.039.037-.058s.016-.017.022-.027c.2-.329.325-.382.324-.383s.186.038.522.45a1.971,1.971,0,0,0,1.5,1.061c.034,0,.069,0,.1,0a2.322,2.322,0,0,0,1.741-1.045c.015-.019.025-.039.037-.058s.016-.017.022-.027c.2-.329.325-.382.324-.383s.186.038.522.45a1.971,1.971,0,0,0,1.5,1.061c.034,0,.069,0,.1,0a2.321,2.321,0,0,0,1.741-1.045.678.678,0,0,0,.038-.058c.007-.01.016-.017.022-.027.2-.329.325-.382.324-.383s.186.038.522.45a1.971,1.971,0,0,0,1.5,1.061c.034,0,.069,0,.1,0a2.321,2.321,0,0,0,1.741-1.045.677.677,0,0,0,.038-.058c.007-.01.015-.017.022-.027.2-.329.325-.382.324-.383s.186.038.522.45a1.971,1.971,0,0,0,1.5,1.061c.034,0,.069,0,.1,0a2.321,2.321,0,0,0,1.741-1.045c.015-.019.025-.039.038-.058s.016-.017.022-.027c.2-.33.325-.382.324-.383s.186.037.521.449a1.972,1.972,0,0,0,1.5,1.061c.034,0,.068,0,.1,0a2.277,2.277,0,0,0,1.692-.988,2.44,2.44,0,0,0,.972-2.015,2.153,2.153,0,0,0-1.054-1.67c-.419-.34-.454-.518-.456-.518s.052-.133.384-.333c.011-.007.019-.015.03-.022s.038-.023.056-.037.024-.021.037-.032l0,0a2.218,2.218,0,0,0,1-1.808,1.971,1.971,0,0,0-1.061-1.5c-.412-.336-.448-.513-.45-.513s.052-.133.384-.333c.011-.007.019-.015.03-.022s.038-.023.056-.037.024-.021.037-.032l0,0a2.218,2.218,0,0,0,1-1.808,1.972,1.972,0,0,0-1.061-1.5c-.412-.336-.448-.513-.451-.513s.052-.133.384-.333M39.249,29.259c-.006,0-.133-.053-.333-.384-.01-.015-.022-.028-.032-.043s-.017-.029-.027-.042-.021-.024-.031-.036l-.005-.006a2.217,2.217,0,0,0-1.807-1,1.971,1.971,0,0,0-1.5,1.061c-.338.415-.515.449-.514.451s-.133-.053-.333-.384c-.009-.015-.021-.027-.031-.041s-.017-.03-.029-.044l-.033-.038,0,0a2.206,2.206,0,0,0-1.808-1,1.971,1.971,0,0,0-1.5,1.061c-.338.415-.515.449-.514.451s-.133-.053-.333-.384c-.009-.015-.021-.027-.031-.042s-.017-.03-.029-.043-.021-.024-.032-.037l0,0a2.207,2.207,0,0,0-1.808-1A1.971,1.971,0,0,0,27,28.808c-.338.415-.515.449-.514.451s-.133-.053-.333-.384c-.009-.015-.021-.027-.031-.042s-.017-.03-.029-.043-.021-.024-.032-.037l0,0a2.208,2.208,0,0,0-1.808-1,1.971,1.971,0,0,0-1.5,1.061c-.338.415-.515.449-.514.451s-.133-.053-.333-.384c-.009-.015-.021-.027-.031-.041s-.017-.03-.029-.044l-.033-.038,0,0a2.209,2.209,0,0,0-1.808-1,1.971,1.971,0,0,0-1.5,1.061c-.338.415-.515.449-.514.451s-.133-.053-.333-.384c-.009-.015-.021-.027-.031-.042s-.017-.03-.028-.043-.022-.024-.032-.037l0,0a2.207,2.207,0,0,0-1.808-1,1.971,1.971,0,0,0-1.5,1.061c-.338.415-.515.449-.514.451s-.133-.053-.333-.384c-.009-.015-.021-.027-.031-.042s-.017-.03-.028-.043-.022-.024-.032-.037l0,0a2.208,2.208,0,0,0-1.808-1,1.971,1.971,0,0,0-1.5,1.061c-.338.415-.514.449-.514.451s-.133-.053-.333-.384c-.009-.015-.022-.028-.032-.043a.716.716,0,0,0-.049-.065A.832.832,0,0,0,9,28.706c-.012-.011-.022-.024-.035-.035A1.017,1.017,0,0,1,8.5,27.9a.7.7,0,0,1,.382-.5c.012-.007.02-.016.031-.024a.619.619,0,0,0,.054-.036L9,27.314l.006-.005a2.217,2.217,0,0,0,1-1.807A1.972,1.972,0,0,0,8.949,24c-.412-.337-.448-.513-.451-.513s.053-.133.384-.333c.012-.007.02-.016.031-.024a.619.619,0,0,0,.054-.036L9,23.061l.006-.005a2.217,2.217,0,0,0,1-1.807,1.971,1.971,0,0,0-1.061-1.5c-.412-.337-.448-.513-.451-.513s.053-.133.384-.334c.012-.007.02-.016.031-.023s.037-.022.054-.036L9,18.808,9.01,18.8a2.216,2.216,0,0,0,1-1.807,1.972,1.972,0,0,0-1.061-1.5c-.412-.337-.448-.513-.451-.513s.053-.133.384-.334c.012-.007.02-.016.031-.023s.037-.022.054-.036.024-.021.036-.031l.006-.005a2.216,2.216,0,0,0,1-1.807,1.972,1.972,0,0,0-1.061-1.5c-.412-.337-.448-.513-.451-.513s.053-.133.384-.334a.771.771,0,0,0,.13-.1c.007-.007.012-.015.019-.022a.806.806,0,0,0,.1-.123c0-.007.011-.012.015-.019.2-.33.325-.382.324-.383s.186.038.522.45a1.971,1.971,0,0,0,1.5,1.061c.034,0,.069,0,.1,0a2.321,2.321,0,0,0,1.741-1.046c.015-.018.025-.038.037-.058s.016-.017.022-.027c.2-.33.325-.382.324-.383s.186.038.522.45a1.971,1.971,0,0,0,1.5,1.061c.034,0,.069,0,.1,0a2.321,2.321,0,0,0,1.741-1.046c.015-.018.025-.038.037-.058s.016-.017.022-.027c.2-.33.325-.382.324-.383s.186.038.522.45A1.971,1.971,0,0,0,20,11.258c.034,0,.069,0,.1,0a2.321,2.321,0,0,0,1.741-1.046c.015-.018.025-.038.037-.058s.016-.017.022-.027c.2-.33.325-.382.324-.383s.186.038.522.45a1.971,1.971,0,0,0,1.5,1.061c.034,0,.069,0,.1,0a2.32,2.32,0,0,0,1.74-1.046.617.617,0,0,0,.038-.058c.007-.01.016-.017.022-.027.2-.33.325-.382.324-.383s.186.038.522.45a1.971,1.971,0,0,0,1.5,1.061c.034,0,.069,0,.1,0a2.32,2.32,0,0,0,1.741-1.046.615.615,0,0,0,.038-.058c.007-.01.016-.017.022-.027.2-.33.325-.382.324-.383s.186.038.522.45a1.971,1.971,0,0,0,1.5,1.061c.034,0,.069,0,.1,0A2.32,2.32,0,0,0,34.6,10.215c.015-.018.025-.038.038-.058s.015-.017.022-.027c.2-.33.325-.382.324-.383s.186.038.522.45a1.971,1.971,0,0,0,1.5,1.061c.034,0,.068,0,.1,0a2.319,2.319,0,0,0,1.741-1.046c.015-.018.024-.038.037-.057s.016-.018.023-.028c.2-.33.325-.382.324-.383s.191.037.538.468c.011.014.024.024.036.037a.8.8,0,0,0,.06.06.748.748,0,0,0,.064.048c.015.01.028.023.044.032a.994.994,0,0,1,.383.324c0,.009-.037.186-.449.522a1.972,1.972,0,0,0-1.062,1.5,2.217,2.217,0,0,0,1,1.807l.005,0,.037.031a.624.624,0,0,0,.054.036c.011.007.02.017.031.023.328.2.381.324.383.324s-.037.186-.449.522A1.972,1.972,0,0,0,38.854,17a2.216,2.216,0,0,0,1,1.807l.005.005.037.031c.017.014.036.024.054.036s.02.017.031.023a.994.994,0,0,1,.383.324c0,.009-.037.186-.449.522a1.972,1.972,0,0,0-1.062,1.5,2.215,2.215,0,0,0,1,1.807l.005,0,.037.032a.63.63,0,0,0,.054.036c.011.007.019.017.031.023.328.2.381.324.383.324s-.037.186-.449.522a1.972,1.972,0,0,0-1.062,1.5,2.216,2.216,0,0,0,1,1.807l.005,0,.037.032c.017.014.036.024.054.036s.02.016.031.023a.7.7,0,0,1,.382.5,1.019,1.019,0,0,1-.468.768l0,0c-.019.015-.034.034-.051.05a.744.744,0,0,0-.06.061l0,0c-.349.434-.53.467-.529.469" transform="translate(-4.266 -5.031)" fill="#0032a0"/>
      <path id="Path_2646" data-name="Path 2646" d="M34.27,26.532H26.827a.773.773,0,1,1,0-1.546H34.27a.773.773,0,1,1,0,1.546" transform="translate(-15.983 -15.328)" fill="#0032a0"/>
      <path id="Path_2647" data-name="Path 2647" d="M31.08,36.114H26.827a.773.773,0,1,1,0-1.546H31.08a.773.773,0,1,1,0,1.546" transform="translate(-15.983 -21.207)" fill="#0032a0"/>
      <path id="Path_2648" data-name="Path 2648" d="M31.08,46.392H26.827a.773.773,0,1,1,0-1.546H31.08a.773.773,0,1,1,0,1.546" transform="translate(-15.983 -27.512)" fill="#0032a0"/>
    </g>
  </g>
</svg>
