<svg xmlns="http://www.w3.org/2000/svg" xmlns:xlink="http://www.w3.org/1999/xlink" width="45.813" height="32.848" viewBox="0 0 45.813 32.848">
  <defs>
    <clipPath id="clip-path">
      <rect id="Rectangle_2536" data-name="Rectangle 2536" width="36.351" height="32.848" fill="none" stroke="#0032a0" stroke-width="1"/>
    </clipPath>
  </defs>
  <g id="Group_17677" data-name="Group 17677" transform="translate(-53 -16.652)">
    <g id="Group_17266" data-name="Group 17266" transform="translate(-120 -488)">
      <g id="Group_17240" data-name="Group 17240" transform="translate(173 504.652)">
        <path id="Line_369" data-name="Line 369" d="M0,13.013a.75.75,0,0,1-.75-.75V0A.75.75,0,0,1,0-.75.75.75,0,0,1,.75,0V12.263A.75.75,0,0,1,0,13.013Z" transform="translate(20.803 16.424)" fill="#0032a0"/>
        <path id="Line_370" data-name="Line 370" d="M0,13.013a.75.75,0,0,1-.75-.75V0A.75.75,0,0,1,0-.75.75.75,0,0,1,.75,0V12.263A.75.75,0,0,1,0,13.013Z" transform="translate(16.424 16.424)" fill="#0032a0"/>
        <path id="Line_371" data-name="Line 371" d="M0,13.013a.75.75,0,0,1-.75-.75V0A.75.75,0,0,1,0-.75.75.75,0,0,1,.75,0V12.263A.75.75,0,0,1,0,13.013Z" transform="translate(10.292 16.424)" fill="#0032a0"/>
        <path id="Line_372" data-name="Line 372" d="M0,13.013a.75.75,0,0,1-.75-.75V0A.75.75,0,0,1,0-.75.75.75,0,0,1,.75,0V12.263A.75.75,0,0,1,0,13.013Z" transform="translate(5.913 16.424)" fill="#0032a0"/>
        <path id="Line_373" data-name="Line 373" d="M30.658.75H0A.75.75,0,0,1-.75,0,.75.75,0,0,1,0-.75H30.658a.75.75,0,0,1,.75.75A.75.75,0,0,1,30.658.75Z" transform="translate(3.285 28.687)" fill="#0032a0"/>
        <path id="Line_374" data-name="Line 374" d="M30.658.75H0A.75.75,0,0,1-.75,0,.75.75,0,0,1,0-.75H30.658a.75.75,0,0,1,.75.75A.75.75,0,0,1,30.658.75Z" transform="translate(3.285 10.292)" fill="#0032a0"/>
        <g id="Group_17237" data-name="Group 17237">
          <g id="Group_17236" data-name="Group 17236" clip-path="url(#clip-path)">
            <path id="Path_2642" data-name="Path 2642" d="M34.408,14.639H3.75a.75.75,0,0,1-.75-.75V10.34A.75.75,0,0,1,3.352,9.7L18.681.114a.75.75,0,0,1,.8,0L34.806,9.7a.75.75,0,0,1,.352.636v3.548A.75.75,0,0,1,34.408,14.639ZM4.5,13.139H33.658V10.756L19.079,1.634,4.5,10.756Z" transform="translate(-0.465 -0.093)" fill="#0032a0"/>
          </g>
        </g>
        <path id="Line_375" data-name="Line 375" d="M2.628.75H0A.75.75,0,0,1-.75,0,.75.75,0,0,1,0-.75H2.628a.75.75,0,0,1,.75.75A.75.75,0,0,1,2.628.75Z" transform="translate(17.3 6.788)" fill="#0032a0"/>
        <g id="Group_17239" data-name="Group 17239">
          <g id="Group_17238" data-name="Group 17238" clip-path="url(#clip-path)">
            <path id="Line_376" data-name="Line 376" d="M35.037.75H0A.75.75,0,0,1-.75,0,.75.75,0,0,1,0-.75H35.037a.75.75,0,0,1,.75.75A.75.75,0,0,1,35.037.75Z" transform="translate(0.657 32.191)" fill="#0032a0"/>
          </g>
        </g>
        <path id="Line_377" data-name="Line 377" d="M0,13.013a.75.75,0,0,1-.75-.75V0A.75.75,0,0,1,0-.75.75.75,0,0,1,.75,0V12.263A.75.75,0,0,1,0,13.013Z" transform="translate(31.315 16.424)" fill="#0032a0"/>
        <path id="Line_378" data-name="Line 378" d="M0,13.013a.75.75,0,0,1-.75-.75V0A.75.75,0,0,1,0-.75.75.75,0,0,1,.75,0V12.263A.75.75,0,0,1,0,13.013Z" transform="translate(26.935 16.424)" fill="#0032a0"/>
      </g>
    </g>
    <g id="Group_17676" data-name="Group 17676" transform="translate(-22 -4)">
      <path id="Polygon_3_-_Outline" data-name="Polygon 3 - Outline" d="M5.9,1.822a.524.524,0,0,0-.5.365l0,.011a2.014,2.014,0,0,1-1.926,1.41H3.44a.523.523,0,0,0-.5.689A2.01,2.01,0,0,1,2.2,6.586a.523.523,0,0,0,0,.853,2.01,2.01,0,0,1,.744,2.289.523.523,0,0,0,.5.689h.034A2.014,2.014,0,0,1,5.4,11.825l0,.011a.524.524,0,0,0,.5.365.508.508,0,0,0,.307-.1l.016-.012a2.021,2.021,0,0,1,2.4,0l.016.012a.508.508,0,0,0,.307.1.524.524,0,0,0,.5-.366l0-.011a2.014,2.014,0,0,1,1.926-1.41h.034a.523.523,0,0,0,.5-.689,2.01,2.01,0,0,1,.745-2.289.523.523,0,0,0,0-.853A2.01,2.01,0,0,1,11.907,4.3a.523.523,0,0,0-.5-.689h-.034A2.014,2.014,0,0,1,9.451,2.2l0-.011a.524.524,0,0,0-.5-.365.508.508,0,0,0-.307.1l-.016.012a2.021,2.021,0,0,1-2.4,0l-.016-.012a.508.508,0,0,0-.307-.1h0m0-.749a1.26,1.26,0,0,1,.751.248l.016.012a1.272,1.272,0,0,0,1.508,0L8.2,1.321a1.272,1.272,0,0,1,1.966.64l0,.011a1.272,1.272,0,0,0,1.222.887H11.4a1.272,1.272,0,0,1,1.216,1.676h0a1.272,1.272,0,0,0,.468,1.44h0a1.272,1.272,0,0,1,0,2.073h0a1.272,1.272,0,0,0-.468,1.44h0A1.272,1.272,0,0,1,11.4,11.165h-.014a1.272,1.272,0,0,0-1.222.887l0,.011A1.272,1.272,0,0,1,8.2,12.7l-.016-.012a1.272,1.272,0,0,0-1.508,0l-.016.012a1.272,1.272,0,0,1-1.966-.64l0-.011a1.272,1.272,0,0,0-1.222-.887H3.45A1.272,1.272,0,0,1,2.234,9.489h0a1.272,1.272,0,0,0-.469-1.44h0a1.272,1.272,0,0,1,0-2.073h0a1.272,1.272,0,0,0,.468-1.44A1.272,1.272,0,0,1,3.45,2.858h.014a1.272,1.272,0,0,0,1.222-.887l0-.011A1.271,1.271,0,0,1,5.9,1.073Z" transform="translate(107.191 37.246)" fill="#0032a0"/>
      <path id="Path_4715" data-name="Path 4715" d="M13.945,12.523l-.288-.3a.062.062,0,0,0-.046-.02h0a.06.06,0,0,0-.046.02l-2,2.014-.728-.728a.063.063,0,0,0-.092,0l-.292.292a.065.065,0,0,0,0,.093l.918.918a.29.29,0,0,0,.192.093.3.3,0,0,0,.19-.09h0l2.191-2.2A.07.07,0,0,0,13.945,12.523Z" transform="translate(102.419 30.701)" fill="#0032a0"/>
      <path id="Path_4716" data-name="Path 4716" d="M6.784,3.834A2.949,2.949,0,1,1,4.7,4.7a2.931,2.931,0,0,1,2.086-.864m0-.459a3.409,3.409,0,1,0,3.409,3.409A3.408,3.408,0,0,0,6.784,3.375Z" transform="translate(107.833 37.474)" fill="#0032a0"/>
    </g>
  </g>
</svg>
