<svg id="Group_17261" data-name="Group 17261" xmlns="http://www.w3.org/2000/svg" xmlns:xlink="http://www.w3.org/1999/xlink" width="24.273" height="38.19" viewBox="0 0 24.273 38.19">
  <defs>
    <clipPath id="clip-path">
      <rect id="Rectangle_2541" data-name="Rectangle 2541" width="24.273" height="38.19" fill="#0032a0"/>
    </clipPath>
  </defs>
  <g id="Group_17248" data-name="Group 17248" clip-path="url(#clip-path)">
    <path id="Path_2659" data-name="Path 2659" d="M23.86,33.98a.666.666,0,0,1-.407-.139l-3.432-2.658a.665.665,0,1,1,.815-1.052l2.948,2.283,5.946-6.488a.665.665,0,0,1,.981.9l-6.36,6.939a.664.664,0,0,1-.491.216" transform="translate(-13.187 -17.156)" fill="#0032a0"/>
    <path id="Path_2660" data-name="Path 2660" d="M12.137,24.273A12.136,12.136,0,1,1,24.273,12.137,12.15,12.15,0,0,1,12.137,24.273m0-22.942A10.806,10.806,0,1,0,22.942,12.137,10.818,10.818,0,0,0,12.137,1.331" fill="#0032a0"/>
    <path id="Path_2661" data-name="Path 2661" d="M69.622,72.2a.665.665,0,0,1-.665-.665V64.5a.665.665,0,1,1,1.331,0v7.028a.666.666,0,0,1-.665.665" transform="translate(-46.015 -42.6)" fill="#0032a0"/>
    <path id="Path_2662" data-name="Path 2662" d="M.665,72.2A.665.665,0,0,1,0,71.532V64.5a.665.665,0,1,1,1.331,0v7.028a.665.665,0,0,1-.665.665" transform="translate(0 -42.6)" fill="#0032a0"/>
    <path id="Path_2663" data-name="Path 2663" d="M58.015,81.208a.665.665,0,0,1-.665-.665V73.964a.665.665,0,1,1,1.331,0v6.579a.665.665,0,0,1-.665.665" transform="translate(-38.27 -48.912)" fill="#0032a0"/>
    <path id="Path_2664" data-name="Path 2664" d="M12.272,81.208a.665.665,0,0,1-.665-.665V73.964a.665.665,0,1,1,1.331,0v6.579a.665.665,0,0,1-.665.665" transform="translate(-7.745 -48.912)" fill="#0032a0"/>
    <path id="Path_2665" data-name="Path 2665" d="M28.171,85.267a.666.666,0,0,1-.665-.665V80.721a.665.665,0,1,1,1.331,0V84.6a.665.665,0,0,1-.665.665" transform="translate(-18.355 -53.421)" fill="#0032a0"/>
    <path id="Path_2666" data-name="Path 2666" d="M42.116,85.267a.665.665,0,0,1-.665-.665V80.721a.665.665,0,0,1,1.331,0V84.6a.666.666,0,0,1-.665.665" transform="translate(-27.66 -53.421)" fill="#0032a0"/>
    <path id="Path_2667" data-name="Path 2667" d="M28.171,104a.665.665,0,0,1-.665-.665V99.289a.665.665,0,1,1,1.331,0v4.047a.665.665,0,0,1-.665.665" transform="translate(-18.355 -65.812)" fill="#0032a0"/>
    <path id="Path_2668" data-name="Path 2668" d="M42.116,104a.665.665,0,0,1-.665-.665V99.289a.665.665,0,0,1,1.331,0v4.047a.665.665,0,0,1-.665.665" transform="translate(-27.66 -65.812)" fill="#0032a0"/>
    <path id="Path_2669" data-name="Path 2669" d="M58.015,103.555a.665.665,0,0,1-.665-.665v-2.023a.665.665,0,1,1,1.331,0v2.023a.666.666,0,0,1-.665.665" transform="translate(-38.27 -66.864)" fill="#0032a0"/>
    <path id="Path_2670" data-name="Path 2670" d="M12.272,103.555a.666.666,0,0,1-.665-.665v-2.023a.665.665,0,1,1,1.331,0v2.023a.666.666,0,0,1-.665.665" transform="translate(-7.745 -66.864)" fill="#0032a0"/>
  </g>
</svg>
