<svg xmlns="http://www.w3.org/2000/svg" xmlns:xlink="http://www.w3.org/1999/xlink" width="32.581" height="32.581" viewBox="0 0 32.581 32.581">
  <defs>
    <clipPath id="clip-path">
      <rect id="Rectangle_2540" data-name="Rectangle 2540" width="32.581" height="32.581" transform="translate(0 0)" fill="#0032a0"/>
    </clipPath>
  </defs>
  <g id="Group_17264" data-name="Group 17264" transform="translate(0 0)">
    <g id="Group_17246" data-name="Group 17246" transform="translate(0 0)" clip-path="url(#clip-path)">
      <path id="Path_2652" data-name="Path 2652" d="M31.718,41.472a.718.718,0,0,1-.44-.151l-4.148-3.212a.719.719,0,0,1,.881-1.137l3.626,2.807,7.239-7.9a.719.719,0,0,1,1.061.972l-7.686,8.387a.72.72,0,0,1-.531.233" transform="translate(-17.197 -20.268)" fill="#0032a0"/>
      <path id="Path_2653" data-name="Path 2653" d="M39.434,28.739a.72.72,0,0,1-.687-.931,10.03,10.03,0,0,0,.422-2.3q.021-.328.021-.662a10.05,10.05,0,0,0-17.849-6.338.719.719,0,1,1-1.116-.907,11.488,11.488,0,0,1,20.4,7.245c0,.25-.008.5-.024.755a11.462,11.462,0,0,1-.483,2.63.719.719,0,0,1-.687.508" transform="translate(-12.85 -8.555)" fill="#0032a0"/>
      <path id="Path_2654" data-name="Path 2654" d="M24.846,49.491a11.5,11.5,0,0,1-10.91-15.1.719.719,0,1,1,1.366.452,10.052,10.052,0,0,0,17.676,9.063.719.719,0,1,1,1.163.846,11.533,11.533,0,0,1-9.3,4.736" transform="translate(-8.555 -21.713)" fill="#0032a0"/>
      <path id="Path_2655" data-name="Path 2655" d="M38.959,17.01a.719.719,0,0,1-.719-.719A14.851,14.851,0,0,0,23.388,1.438a14.88,14.88,0,0,0-11.052,4.93.719.719,0,1,1-1.07-.961,16.291,16.291,0,0,1,24.877.749A16.118,16.118,0,0,1,39.678,16.29a.719.719,0,0,1-.719.719" transform="translate(-7.098 0)" fill="#0032a0"/>
      <path id="Path_2656" data-name="Path 2656" d="M16.29,59.167A16.309,16.309,0,0,1,0,42.876q0-.339.014-.675a.705.705,0,0,1,.748-.689.719.719,0,0,1,.689.748q-.013.307-.013.616A14.853,14.853,0,0,0,27.515,52.6a.719.719,0,0,1,1.086.942A16.29,16.29,0,0,1,16.29,59.167" transform="translate(0 -26.586)" fill="#0032a0"/>
      <path id="Path_2657" data-name="Path 2657" d="M17.9,14.294H11.8a.719.719,0,0,1-.719-.719v-6.5a.719.719,0,0,1,1.438,0v5.778H17.9a.719.719,0,1,1,0,1.438" transform="translate(-7.099 -4.073)" fill="#0032a0"/>
      <path id="Path_2658" data-name="Path 2658" d="M65.9,68.846a.719.719,0,0,1-.719-.719V62.349H59.806a.719.719,0,0,1,0-1.438H65.9a.719.719,0,0,1,.719.719v6.5a.719.719,0,0,1-.719.719" transform="translate(-37.843 -39.011)" fill="#0032a0"/>
    </g>
  </g>
</svg>
