<svg xmlns="http://www.w3.org/2000/svg" width="18" height="18" viewBox="0 0 18 18">
  <g id="Icon_feather-download" data-name="Icon feather-download" transform="translate(1 1)">
    <path id="Path_2443" data-name="Path 2443" d="M18.722,28.833H6.278A2.781,2.781,0,0,1,3.5,26.056V22.5a1,1,0,0,1,2,0v3.556a.779.779,0,0,0,.778.778H18.722a.779.779,0,0,0,.778-.778V22.5a1,1,0,0,1,2,0v3.556A2.781,2.781,0,0,1,18.722,28.833Z" transform="translate(-4.5 -11.833)" fill="#eb7203"/>
    <path id="Path_2444" data-name="Path 2444" d="M14.944,20.444a1,1,0,0,1-.707-.293L9.793,15.707a1,1,0,0,1,1.414-1.414l3.737,3.737,3.737-3.737A1,1,0,1,1,20.1,15.707l-4.444,4.444A1,1,0,0,1,14.944,20.444Z" transform="translate(-6.944 -8.778)" fill="#eb7203"/>
    <path id="Path_2445" data-name="Path 2445" d="M18,16.167a1,1,0,0,1-1-1V4.5a1,1,0,0,1,2,0V15.167A1,1,0,0,1,18,16.167Z" transform="translate(-10 -4.5)" fill="#eb7203"/>
  </g>
</svg>
