<svg xmlns="http://www.w3.org/2000/svg" width="17.999" height="18" viewBox="0 0 17.999 18">
  <g id="Icon_feather-edit" data-name="Icon feather-edit" transform="translate(1 1)">
    <path id="Path_2523" data-name="Path 2523" d="M15.723,21.313H4.59A2.593,2.593,0,0,1,2,18.723V7.59A2.593,2.593,0,0,1,4.59,5h5.566a1,1,0,0,1,0,2H4.59A.591.591,0,0,0,4,7.59V18.723a.591.591,0,0,0,.59.59H15.723a.591.591,0,0,0,.59-.59V13.157a1,1,0,0,1,2,0v5.566A2.593,2.593,0,0,1,15.723,21.313Z" transform="translate(-3 -4.313)" fill="#eb7203"/>
    <path id="Path_2524" data-name="Path 2524" d="M21.542,1.818a2.687,2.687,0,0,1,1.9,4.587l-7.554,7.554a1,1,0,0,1-.465.263l-3.181.8A1,1,0,0,1,11.03,13.8l.8-3.181a1,1,0,0,1,.263-.465L19.642,2.6A2.669,2.669,0,0,1,21.542,1.818ZM14.669,12.349,22.028,4.99a.687.687,0,1,0-.971-.971L13.7,11.378l-.324,1.3Z" transform="translate(-7.229 -2.818)" fill="#eb7203"/>
  </g>
</svg>
