<svg id="Icon" xmlns="http://www.w3.org/2000/svg" width="40" height="40" viewBox="0 0 40 40">
  <g id="Rectangle_2453" data-name="Rectangle 2453" fill="#fff" stroke="#eb7203" stroke-width="1">
    <rect width="40" height="40" rx="4" stroke="none"/>
    <rect x="0.5" y="0.5" width="39" height="39" rx="3.5" fill="none"/>
  </g>
  <g id="noun-filter-4781193" transform="translate(9.312 10)">
    <path id="Path_2526" data-name="Path 2526" d="M70.5,11.27h3.132a2.926,2.926,0,0,0,5.765,0H91.039a.506.506,0,1,0,0-1.011H79.4a2.925,2.925,0,0,0-5.763,0H70.5a.5.5,0,1,0,0,1.009Zm6.012-2.422A1.919,1.919,0,1,1,74.6,10.767,1.921,1.921,0,0,1,76.516,8.848ZM91.037,17.8H88.812a2.926,2.926,0,0,0-5.765,0H70.5a.506.506,0,1,0,0,1.011H83.05a2.926,2.926,0,0,0,5.765,0h2.225a.506.506,0,1,0,0-1.011Zm-5.1,2.424a1.919,1.919,0,1,1,1.919-1.919A1.921,1.921,0,0,1,85.932,20.229Zm5.1,5.118H79.4a2.924,2.924,0,0,0-5.763,0H70.5a.506.506,0,1,0,0,1.011h3.132a2.926,2.926,0,0,0,5.765,0H91.039a.506.506,0,1,0,0-1.011ZM76.516,27.771a1.919,1.919,0,1,1,1.919-1.919A1.921,1.921,0,0,1,76.516,27.771Z" transform="translate(-69.998 -7.839)" fill="#eb7203"/>
  </g>
</svg>
