<svg xmlns="http://www.w3.org/2000/svg" width="16" height="16" viewBox="0 0 16 16">
  <g id="Icon_ionic-ios-help-circle-outline" data-name="Icon ionic-ios-help-circle-outline" transform="translate(2.051 2.051)">
    <path id="Path_2434" data-name="Path 2434" d="M11.375,4.452a6.92,6.92,0,1,1-4.9,2.027,6.877,6.877,0,0,1,4.9-2.027m0-1.077a8,8,0,1,0,8,8,8,8,0,0,0-8-8Z" transform="translate(-5.426 -5.426)" fill="#eb7203"/>
    <path id="Path_2435" data-name="Path 2435" d="M16.533,11.25c1.758,0,2.967.975,2.967,2.377a2.293,2.293,0,0,1-1.317,2.081c-.816.473-1.092.82-1.092,1.42v.37H15.464l-.014-.4a1.951,1.951,0,0,1,1.106-2.062c.792-.473,1.125-.773,1.125-1.355A1.138,1.138,0,0,0,16.42,12.67a1.186,1.186,0,0,0-1.256,1.153H13.5C13.533,12.314,14.648,11.25,16.533,11.25ZM15.3,19.284a1.006,1.006,0,1,1,1,.966A.982.982,0,0,1,15.3,19.284Z" transform="translate(-10.55 -9.801)" fill="#eb7203"/>
  </g>
</svg>
