<svg id="active" xmlns="http://www.w3.org/2000/svg" width="48" height="48" viewBox="0 0 48 48">
  <circle id="Ellipse_253" data-name="Ellipse 253" cx="24" cy="24" r="24" fill="#d9e5ff"/>
  <circle id="Ellipse_249" data-name="Ellipse 249" cx="20" cy="20" r="20" transform="translate(4 4)" fill="#0032a0"/>
  <path id="step4" d="M20.167,2.25H1.833A1.834,1.834,0,0,0,0,4.083v.611H22V4.083A1.834,1.834,0,0,0,20.167,2.25ZM0,17.528a1.834,1.834,0,0,0,1.833,1.833H20.167A1.834,1.834,0,0,0,22,17.528V5.917H0ZM13.444,8.667a.306.306,0,0,1,.306-.306h5.5a.306.306,0,0,1,.306.306v.611a.306.306,0,0,1-.306.306h-5.5a.306.306,0,0,1-.306-.306Zm0,2.444a.306.306,0,0,1,.306-.306h5.5a.306.306,0,0,1,.306.306v.611a.306.306,0,0,1-.306.306h-5.5a.306.306,0,0,1-.306-.306Zm0,2.444a.306.306,0,0,1,.306-.306h5.5a.306.306,0,0,1,.306.306v.611a.306.306,0,0,1-.306.306h-5.5a.306.306,0,0,1-.306-.306ZM6.722,8.361a2.444,2.444,0,1,1-2.444,2.444A2.447,2.447,0,0,1,6.722,8.361Zm-4.159,7.8a2.448,2.448,0,0,1,2.326-1.688H5.2a3.934,3.934,0,0,0,3.04,0h.313a2.448,2.448,0,0,1,2.326,1.688.6.6,0,0,1-.6.756H3.159A.6.6,0,0,1,2.563,16.16Z" transform="translate(12.883 13.195)" fill="#fff"/>
</svg>
