<svg id="active" xmlns="http://www.w3.org/2000/svg" width="48" height="48" viewBox="0 0 48 48">
  <circle id="Ellipse_253" data-name="Ellipse 253" cx="24" cy="24" r="24" fill="#d9e5ff"/>
  <circle id="Ellipse_249" data-name="Ellipse 249" cx="20" cy="20" r="20" transform="translate(4 4)" fill="#0032a0"/>
  <path id="step3" d="M11.846,3.6H6.6A2.1,2.1,0,0,0,4.5,5.7V20.389a2.1,2.1,0,0,0,2.1,2.1h5.247v2.1h2.1V1.5h-2.1Zm0,15.741H6.6l5.247-6.3ZM21.29,3.6H16.043V5.7H21.29V19.34l-5.247-6.3v9.444H21.29a2.1,2.1,0,0,0,2.1-2.1V5.7A2.1,2.1,0,0,0,21.29,3.6Z" transform="translate(10.5 11.5)" fill="#fff"/>
</svg>
