<svg version="1.2" xmlns="http://www.w3.org/2000/svg" viewBox="0 0 40 40" width="40" height="40">
	<title>Icon-close-svg</title>
	<style>
		.s0 { fill: #000000 } 
	</style>
	<g id="Icon_ionic-ios-close-circle-outline">
		<path id="Path_2436" class="s0" d="m25.7 24.2q0.1 0.2 0.1 0.4 0 0.2-0.1 0.5-0.1 0.2-0.3 0.3-0.1 0.2-0.3 0.3-0.3 0.1-0.5 0.1-0.2 0-0.4-0.1-0.2-0.1-0.4-0.3l-3.8-3.8-3.8 3.8q-0.2 0.2-0.4 0.3-0.2 0.1-0.4 0.1-0.2 0-0.5-0.1-0.2-0.1-0.3-0.3-0.2-0.1-0.3-0.3-0.1-0.3-0.1-0.5 0-0.2 0.1-0.4 0.1-0.2 0.3-0.4l3.8-3.8-3.8-3.8c-0.2-0.2-0.4-0.5-0.4-0.8 0-0.3 0.2-0.6 0.4-0.8 0.2-0.2 0.5-0.4 0.8-0.4 0.3 0 0.6 0.2 0.8 0.4l3.8 3.8 3.8-3.8c0.2-0.2 0.5-0.4 0.8-0.4 0.3 0 0.6 0.2 0.8 0.4 0.2 0.2 0.4 0.5 0.4 0.8 0 0.3-0.2 0.6-0.4 0.8l-3.8 3.8 3.8 3.8q0.2 0.2 0.3 0.4z"/>
		<path id="Path_2437" fill-rule="evenodd" class="s0" d="m25.7 6.1c1.9 0.8 3.5 1.9 4.9 3.3 1.4 1.4 2.5 3 3.3 4.9 0.7 1.8 1.1 3.7 1.1 5.7 0 6.1-3.7 11.5-9.3 13.9-5.6 2.3-12 1-16.3-3.3-4.3-4.3-5.6-10.7-3.3-16.3 2.4-5.6 7.8-9.3 13.9-9.3 2 0 3.9 0.4 5.7 1.1zm-8.2 1.2q-1.3 0.2-2.5 0.7-1.2 0.5-2.2 1.2-1.1 0.7-2 1.6c-4.4 4.4-5 11.3-1.6 16.4 3.4 5.1 10 7.2 15.8 4.8 5.7-2.4 8.9-8.5 7.7-14.5-1.2-6.1-6.5-10.5-12.7-10.5q-1.3 0-2.5 0.3z"/>
	</g>
</svg>