<svg width="20" height="20" viewBox="0 0 20 20" fill="none" xmlns="http://www.w3.org/2000/svg">
<path fill-rule="evenodd" clip-rule="evenodd" d="M17.8791 4.51376C17.9583 4.63393 17.9935 4.77775 17.979 4.92092C17.9644 5.06409 17.9008 5.19784 17.7991 5.29959L10.1382 12.9596C10.0599 13.0379 9.96209 13.094 9.85491 13.1221L6.66408 13.9554C6.5586 13.9829 6.44777 13.9824 6.34257 13.9538C6.23738 13.9253 6.14148 13.8697 6.06441 13.7926C5.98733 13.7155 5.93175 13.6196 5.90319 13.5144C5.87462 13.4092 5.87407 13.2984 5.90158 13.1929L6.73491 10.0029C6.75924 9.90717 6.80513 9.81824 6.86908 9.74293L14.5582 2.05876C14.6754 1.94172 14.8343 1.87598 14.9999 1.87598C15.1655 1.87598 15.3244 1.94172 15.4416 2.05876L17.7991 4.41543C17.829 4.44543 17.8558 4.47838 17.8791 4.51376ZM16.4732 4.85709L14.9999 3.38459L7.90158 10.4829L7.38075 12.4771L9.37491 11.9563L16.4732 4.85709Z" fill="#EB7203"/>
<path d="M16.3674 14.2997C16.5952 12.353 16.6679 10.3913 16.5849 8.43308C16.5831 8.38694 16.5908 8.34093 16.6076 8.29791C16.6244 8.2549 16.6498 8.21581 16.6824 8.18308L17.5024 7.36308C17.5248 7.34054 17.5532 7.32496 17.5843 7.3182C17.6153 7.31144 17.6477 7.31378 17.6774 7.32496C17.7072 7.33614 17.7331 7.35567 17.752 7.3812C17.7709 7.40674 17.782 7.4372 17.784 7.46891C17.9384 9.79494 17.8798 12.1302 17.609 14.4456C17.4124 16.1306 16.059 17.4514 14.3815 17.6389C11.4693 17.9614 8.53043 17.9614 5.61822 17.6389C3.94155 17.4514 2.58738 16.1306 2.39072 14.4456C2.04522 11.4918 2.04522 8.50773 2.39072 5.55391C2.58738 3.86891 3.94072 2.54808 5.61822 2.36058C7.82852 2.11548 10.0555 2.0561 12.2757 2.18308C12.3075 2.18536 12.3379 2.1967 12.3635 2.21575C12.389 2.23481 12.4085 2.26078 12.4198 2.29059C12.431 2.32041 12.4334 2.35281 12.4268 2.38397C12.4202 2.41513 12.4048 2.44374 12.3824 2.46641L11.5549 3.29308C11.5225 3.32537 11.4838 3.35068 11.4412 3.36745C11.3987 3.38421 11.3531 3.39209 11.3074 3.39058C9.45468 3.3276 7.59985 3.39861 5.75738 3.60308C5.219 3.66267 4.71643 3.90201 4.33085 4.28245C3.94526 4.66289 3.69919 5.16221 3.63238 5.69974C3.29826 8.55667 3.29826 11.4428 3.63238 14.2997C3.69919 14.8373 3.94526 15.3366 4.33085 15.717C4.71643 16.0975 5.219 16.3368 5.75738 16.3964C8.55322 16.7089 11.4465 16.7089 14.2432 16.3964C14.7816 16.3368 15.2842 16.0975 15.6698 15.717C16.0553 15.3366 16.3006 14.8373 16.3674 14.2997Z" fill="#EB7203"/>
</svg>
