<svg width="20" height="20" viewBox="0 0 20 20" fill="none" xmlns="http://www.w3.org/2000/svg">
<path d="M13.75 16.25C14.4404 16.25 15 15.6904 15 15C15 14.3096 14.4404 13.75 13.75 13.75C13.0596 13.75 12.5 14.3096 12.5 15C12.5 15.6904 13.0596 16.25 13.75 16.25Z" fill="#EB7203"/>
<path d="M18.6106 14.6744C18.2245 13.6906 17.5581 12.8417 16.6941 12.233C15.83 11.6243 14.8064 11.2825 13.75 11.25C12.6936 11.2825 11.67 11.6243 10.8059 12.233C9.94194 12.8417 9.27555 13.6906 8.88937 14.6744L8.75 15L8.88937 15.3256C9.27555 16.3094 9.94194 17.1583 10.8059 17.767C11.67 18.3757 12.6936 18.7175 13.75 18.75C14.8064 18.7175 15.83 18.3757 16.6941 17.767C17.5581 17.1583 18.2245 16.3094 18.6106 15.3256L18.75 15L18.6106 14.6744ZM13.75 17.5C13.2555 17.5 12.7722 17.3534 12.3611 17.0787C11.95 16.804 11.6295 16.4135 11.4403 15.9567C11.2511 15.4999 11.2016 14.9972 11.298 14.5123C11.3945 14.0273 11.6326 13.5819 11.9822 13.2322C12.3319 12.8826 12.7773 12.6445 13.2623 12.548C13.7472 12.4516 14.2499 12.5011 14.7067 12.6903C15.1635 12.8795 15.554 13.2 15.8287 13.6111C16.1034 14.0222 16.25 14.5055 16.25 15C16.2492 15.6628 15.9855 16.2982 15.5169 16.7669C15.0482 17.2355 14.4128 17.4992 13.75 17.5Z" fill="#EB7203"/>
<path d="M7.5 17.5H5V2.49997H10V6.24997C10.001 6.58119 10.133 6.89855 10.3672 7.13276C10.6014 7.36697 10.9188 7.49898 11.25 7.49997H15V9.99997H16.25V6.24997C16.2522 6.16783 16.2366 6.08619 16.2042 6.01066C16.1719 5.93514 16.1235 5.86752 16.0625 5.81247L11.6875 1.43747C11.6325 1.37643 11.5649 1.32806 11.4893 1.29569C11.4138 1.26332 11.3321 1.24772 11.25 1.24997H5C4.66878 1.25096 4.35142 1.38297 4.11721 1.61718C3.883 1.85138 3.75099 2.16875 3.75 2.49997V17.5C3.75099 17.8312 3.883 18.1486 4.11721 18.3828C4.35142 18.617 4.66878 18.749 5 18.75H7.5V17.5ZM11.25 2.74997L14.75 6.24997H11.25V2.74997Z" fill="#EB7203"/>
</svg>
