<svg width="24" height="24" viewBox="0 0 24 24" fill="none" xmlns="http://www.w3.org/2000/svg">
<path d="M11.9998 8.61091C13.6636 8.61091 15.0123 7.26216 15.0123 5.59839C15.0123 3.93463 13.6636 2.58588 11.9998 2.58588C10.3361 2.58588 8.9873 3.93463 8.9873 5.59839C8.9873 7.26216 10.3361 8.61091 11.9998 8.61091Z" stroke="#696969" stroke-width="1.2" stroke-miterlimit="10" stroke-linecap="round" stroke-linejoin="round"/>
<path d="M4.09201 9.17578C5.28784 9.17578 6.25726 8.20636 6.25726 7.01053C6.25726 5.81469 5.28784 4.84528 4.09201 4.84528C2.89617 4.84528 1.92676 5.81469 1.92676 7.01053C1.92676 8.20636 2.89617 9.17578 4.09201 9.17578Z" stroke="#696969" stroke-width="1.2" stroke-miterlimit="10" stroke-linecap="round" stroke-linejoin="round"/>
<path d="M19.9074 9.17578C21.1033 9.17578 22.0727 8.20636 22.0727 7.01053C22.0727 5.81469 21.1033 4.84528 19.9074 4.84528C18.7116 4.84528 17.7422 5.81469 17.7422 7.01053C17.7422 8.20636 18.7116 9.17578 19.9074 9.17578Z" stroke="#696969" stroke-width="1.2" stroke-miterlimit="10" stroke-linecap="round" stroke-linejoin="round"/>
<path d="M16.5189 10.8703L12.0002 8.6109L7.48145 10.8703V21.414H16.5189V10.8703Z" stroke="#696969" stroke-width="1.2" stroke-miterlimit="10" stroke-linecap="round" stroke-linejoin="round"/>
<path d="M7.48125 10.8703L4.09219 9.17578L0.703125 10.8703V18.7781H7.48125V10.8703Z" stroke="#696969" stroke-width="1.2" stroke-miterlimit="10" stroke-linecap="round" stroke-linejoin="round"/>
<path d="M23.2967 10.8703L19.9076 9.17578L16.5186 10.8703V18.7781H23.2967V10.8703Z" stroke="#696969" stroke-width="1.2" stroke-miterlimit="10" stroke-linecap="round" stroke-linejoin="round"/>
<path d="M12.0004 18.4015L10.4941 16.8953L12.0004 8.6109L13.5066 16.8953L12.0004 18.4015Z" stroke="#696969" stroke-width="1.2" stroke-miterlimit="10" stroke-linecap="round" stroke-linejoin="round"/>
</svg>
