<svg width="24" height="24" viewBox="0 0 24 24" fill="none" xmlns="http://www.w3.org/2000/svg">
<mask id="mask0_1_10572" style="mask-type:luminance" maskUnits="userSpaceOnUse" x="0" y="0" width="24" height="24">
<path d="M0 1.90735e-06H24V24H0V1.90735e-06Z" fill="white"/>
</mask>
<g mask="url(#mask0_1_10572)">
<path d="M10.3125 10.3125C10.3125 11.348 9.47301 12.1875 8.4375 12.1875H2.8125C1.77698 12.1875 0.9375 11.348 0.9375 10.3125V2.8125C0.9375 1.77698 1.77698 0.9375 2.8125 0.9375H8.4375C9.47301 0.9375 10.3125 1.77698 10.3125 2.8125V10.3125Z" stroke="#696969" stroke-miterlimit="10"/>
<path d="M23.0625 21.1875C23.0625 22.223 22.223 23.0625 21.1875 23.0625H15.5625C14.527 23.0625 13.6875 22.223 13.6875 21.1875V13.6875C13.6875 12.652 14.527 11.8125 15.5625 11.8125H21.1875C22.223 11.8125 23.0625 12.652 23.0625 13.6875V21.1875Z" stroke="#696969" stroke-miterlimit="10"/>
<path d="M10.3125 21.1875C10.3125 22.223 9.47301 23.0625 8.4375 23.0625H2.8125C1.77698 23.0625 0.9375 22.223 0.9375 21.1875V17.4375C0.9375 16.402 1.77698 15.5625 2.8125 15.5625H8.4375C9.47301 15.5625 10.3125 16.402 10.3125 17.4375V21.1875Z" stroke="#696969" stroke-miterlimit="10"/>
<path d="M23.0625 6.5625C23.0625 7.59802 22.223 8.4375 21.1875 8.4375H15.5625C14.527 8.4375 13.6875 7.59802 13.6875 6.5625V2.8125C13.6875 1.77699 14.527 0.937501 15.5625 0.937501H21.1875C22.223 0.937501 23.0625 1.77699 23.0625 2.8125V6.5625Z" stroke="#696969" stroke-miterlimit="10"/>
</g>
</svg>
