<svg width="24" height="24" viewBox="0 0 24 24" fill="none" xmlns="http://www.w3.org/2000/svg">
<g clip-path="url(#clip0_67_9562)">
<path d="M13.8971 7.52713L10.2217 16.2848" stroke="#696969" stroke-miterlimit="10" stroke-linecap="round" stroke-linejoin="round"/>
<mask id="mask0_67_9562" style="mask-type:luminance" maskUnits="userSpaceOnUse" x="0" y="0" width="24" height="24">
<path d="M0 1.90735e-06H24V24H0V1.90735e-06Z" fill="white"/>
</mask>
<g mask="url(#mask0_67_9562)">
<path d="M11.1421 9.00617C11.1421 10.0484 10.4151 10.8933 9.51815 10.8933C8.62124 10.8933 7.89417 10.0484 7.89417 9.00617C7.89417 7.96395 8.62124 7.11903 9.51815 7.11903C10.4151 7.11903 11.1421 7.96395 11.1421 9.00617Z" stroke="#696969" stroke-miterlimit="10" stroke-linecap="round" stroke-linejoin="round"/>
<path d="M16.1059 14.9938C16.1059 16.0361 15.3788 16.881 14.4819 16.881C13.585 16.881 12.8579 16.0361 12.8579 14.9938C12.8579 13.9516 13.585 13.1067 14.4819 13.1067C15.3788 13.1067 16.1059 13.9516 16.1059 14.9938Z" stroke="#696969" stroke-miterlimit="10" stroke-linecap="round" stroke-linejoin="round"/>
<path d="M13.5811 1.21493C14.1048 2.02995 15.1623 2.31331 16.0234 1.86931C17.2395 1.24226 18.6967 2.08357 18.7618 3.45035C18.8078 4.41804 19.582 5.19218 20.5496 5.23826C21.9164 5.30328 22.7577 6.76048 22.1307 7.97665V7.9767C21.6867 8.83779 21.9701 9.89524 22.7851 10.419C23.9363 11.1587 23.9363 12.8413 22.7851 13.5811C21.9701 14.1048 21.6867 15.1622 22.1307 16.0233V16.0234C22.7577 17.2395 21.9164 18.6967 20.5496 18.7618C19.582 18.8078 18.8078 19.582 18.7618 20.5496C18.6967 21.9164 17.2395 22.7577 16.0234 22.1307C15.1623 21.6867 14.1048 21.9701 13.5811 22.7851C12.8413 23.9362 11.1587 23.9362 10.419 22.7851C9.89524 21.9701 8.83779 21.6867 7.9767 22.1307C6.76052 22.7577 5.30332 21.9164 5.23826 20.5496C5.19223 19.582 4.41809 18.8078 3.4504 18.7618C2.08362 18.6967 1.2423 17.2395 1.86935 16.0234V16.0233C2.3133 15.1622 2.02995 14.1048 1.21493 13.5811C0.0637735 12.8413 0.0637735 11.1587 1.21493 10.419C2.02995 9.89524 2.3133 8.83779 1.86935 7.9767V7.97665C1.2423 6.76048 2.08362 5.30328 3.4504 5.23826C4.41809 5.19218 5.19223 4.41804 5.23826 3.45035C5.30332 2.08357 6.76052 1.24226 7.9767 1.86931C8.83779 2.31331 9.89524 2.02995 10.419 1.21493C11.1587 0.0637761 12.8413 0.0637761 13.5811 1.21493Z" stroke="#696969" stroke-miterlimit="10" stroke-linecap="round" stroke-linejoin="round"/>
<path d="M5.69239 17.2023C4.52525 15.7888 3.8241 13.9763 3.8241 12.0001C3.8241 7.48461 7.48456 3.82415 12 3.82415C13.9755 3.82415 15.7873 4.52479 17.2006 5.69113" stroke="#696969" stroke-miterlimit="10" stroke-linecap="round" stroke-linejoin="round"/>
<path d="M18.373 6.87798C19.5008 8.27954 20.1759 10.0609 20.1759 12C20.1759 16.5154 16.5154 20.1759 12 20.1759C10.0568 20.1759 8.27194 19.498 6.86902 18.3658" stroke="#696969" stroke-miterlimit="10" stroke-linecap="round" stroke-linejoin="round"/>
</g>
</g>
<defs>
<clipPath id="clip0_67_9562">
<rect width="24" height="24" fill="white"/>
</clipPath>
</defs>
</svg>
