<svg width="12" height="12" viewBox="0 0 12 12" fill="none" xmlns="http://www.w3.org/2000/svg">
<path d="M7.35784 11.958C7.23613 11.9574 7.11683 11.924 7.0125 11.8613L4.78984 10.528C4.5398 10.3771 4.33283 10.1644 4.18886 9.91029C4.04489 9.65621 3.96877 9.36934 3.96784 9.07731V6.06064C3.96845 5.84771 3.90222 5.63995 3.7785 5.46664L0.675171 1.10531C0.602706 1.00462 0.559463 0.88588 0.550214 0.762177C0.540965 0.638473 0.566069 0.514618 0.622756 0.404279C0.679443 0.293939 0.765509 0.201404 0.871458 0.136884C0.977408 0.0723633 1.09912 0.0383653 1.22317 0.0386411H10.7765C10.9007 0.0381238 11.0225 0.0719735 11.1286 0.136443C11.2347 0.200912 11.3209 0.293485 11.3776 0.403913C11.4344 0.51434 11.4594 0.638314 11.4501 0.762108C11.4407 0.885901 11.3972 1.00469 11.3245 1.10531L8.22117 5.46664C8.09725 5.63989 8.0308 5.84764 8.03117 6.06064V11.2833C8.031 11.462 7.96004 11.6333 7.83384 11.7597C7.70764 11.8862 7.53648 11.9574 7.35784 11.958ZM1.22317 0.708641L4.32117 5.07997C4.52587 5.36592 4.63549 5.70898 4.6345 6.06064V9.07664C4.63494 9.25356 4.68101 9.42738 4.76824 9.5813C4.85548 9.73522 4.98094 9.86404 5.1325 9.95531L7.35517 11.2886L7.3645 6.05997C7.36376 5.70825 7.47361 5.36519 7.6785 5.07931L10.7812 0.717974L1.22317 0.708641Z" fill="#727272"/>
</svg>
