<svg width="16" height="16" viewBox="0 0 16 16" fill="none" xmlns="http://www.w3.org/2000/svg">
<path d="M1.88362 5.88322L3.99882 3.76802V13.2C3.99882 13.3061 4.04096 13.4079 4.11598 13.4829C4.19099 13.5579 4.29273 13.6 4.39882 13.6C4.5049 13.6 4.60665 13.5579 4.68166 13.4829C4.75668 13.4079 4.79882 13.3061 4.79882 13.2V3.76402L6.91802 5.88402C6.99313 5.95903 7.09495 6.00112 7.2011 6.00105C7.30725 6.00097 7.40901 5.95873 7.48402 5.88362C7.55902 5.80852 7.60112 5.70669 7.60104 5.60054C7.60097 5.4944 7.55873 5.39263 7.48362 5.31762L4.69162 2.52562L4.68362 2.51762C4.64647 2.48036 4.60233 2.45079 4.55373 2.43061C4.50514 2.41043 4.45304 2.40004 4.40042 2.40002H4.39882C4.34038 2.40001 4.28265 2.41283 4.2297 2.43757C4.17676 2.46232 4.12989 2.49838 4.09242 2.54322L1.31722 5.31762C1.28008 5.35481 1.25063 5.39896 1.23055 5.44753C1.21047 5.4961 1.20016 5.54815 1.2002 5.60071C1.20023 5.65327 1.21062 5.7053 1.23077 5.75384C1.25092 5.80239 1.28043 5.84649 1.31762 5.88362C1.35481 5.92076 1.39895 5.95021 1.44752 5.97029C1.49609 5.99037 1.54814 6.00068 1.6007 6.00065C1.65326 6.00061 1.70529 5.99022 1.75384 5.97007C1.80238 5.94993 1.84648 5.92041 1.88362 5.88322ZM14.118 10.1168L12.0028 12.232V2.80002C12.0028 2.69394 11.9607 2.5922 11.8857 2.51718C11.8106 2.44217 11.7089 2.40002 11.6028 2.40002C11.4967 2.40002 11.395 2.44217 11.32 2.51718C11.245 2.5922 11.2028 2.69394 11.2028 2.80002V12.236L9.08282 10.116C9.04563 10.0789 9.00149 10.0494 8.95292 10.0294C8.90434 10.0093 8.85229 9.99897 8.79974 9.999C8.69359 9.99908 8.59182 10.0413 8.51682 10.1164C8.44181 10.1915 8.39972 10.2934 8.3998 10.3995C8.39987 10.5057 8.44211 10.6074 8.51722 10.6824L11.3092 13.4744L11.3172 13.4824C11.3545 13.5197 11.3988 13.5493 11.4475 13.5695C11.4963 13.5897 11.5485 13.6 11.6012 13.6H11.6028C11.6613 13.6 11.719 13.5871 11.7719 13.5624C11.8248 13.5377 11.8717 13.5016 11.9092 13.4568L14.6836 10.6824C14.7218 10.6455 14.7523 10.6014 14.7733 10.5526C14.7942 10.5038 14.8053 10.4513 14.8057 10.3982C14.8062 10.3451 14.7961 10.2924 14.7759 10.2432C14.7558 10.1941 14.7261 10.1494 14.6886 10.1119C14.651 10.0743 14.6064 10.0446 14.5572 10.0245C14.508 10.0044 14.4554 9.99426 14.4023 9.99472C14.3491 9.99519 14.2967 10.0062 14.2479 10.0272C14.1991 10.0481 14.1549 10.0786 14.118 10.1168Z" fill="#727272"/>
</svg>
