<svg width="17" height="16" viewBox="0 0 17 16" fill="none" xmlns="http://www.w3.org/2000/svg">
<path d="M8.95089 1.93982C6.74423 1.93982 4.95089 3.73315 4.95089 5.93982V7.86649C4.95089 8.27315 4.77756 8.89315 4.57089 9.23982L3.80423 10.5132C3.33089 11.2998 3.65756 12.1732 4.52423 12.4665C7.39756 13.4265 10.4976 13.4265 13.3709 12.4665C14.1776 12.1998 14.5309 11.2465 14.0909 10.5132L13.3242 9.23982C13.1242 8.89315 12.9509 8.27315 12.9509 7.86649V5.93982C12.9509 3.73982 11.1509 1.93982 8.95089 1.93982Z" stroke="#696969" stroke-miterlimit="10" stroke-linecap="round"/>
<path d="M10.1825 2.13346C9.97582 2.07346 9.76249 2.02679 9.54249 2.00012C8.90249 1.92012 8.28915 1.96679 7.71582 2.13346C7.90915 1.64012 8.38915 1.29346 8.94915 1.29346C9.50915 1.29346 9.98915 1.64012 10.1825 2.13346Z" stroke="#696969" stroke-miterlimit="10" stroke-linecap="round" stroke-linejoin="round"/>
<path d="M10.9492 12.7064C10.9492 13.8064 10.0492 14.7064 8.94922 14.7064C8.40255 14.7064 7.89588 14.4798 7.53588 14.1198C7.17588 13.7598 6.94922 13.2531 6.94922 12.7064" stroke="#696969" stroke-miterlimit="10"/>
</svg>
