<svg width="28" height="28" viewBox="0 0 28 28" fill="none" xmlns="http://www.w3.org/2000/svg">
<g clip-path="url(#clip0_67_9600)">
<path d="M13.2512 19.0821L12.4725 15.3896" stroke="#696969" stroke-miterlimit="10" stroke-linecap="round" stroke-linejoin="round"/>
<path d="M15.9747 13.005H18.4193C19.6399 13.005 20.6292 13.9948 20.6292 15.2149V15.9691" stroke="#696969" stroke-miterlimit="10" stroke-linecap="round" stroke-linejoin="round"/>
<path d="M20.6292 17.8831V19.0824H7.37073V15.2149C7.37073 13.9948 8.36002 13.005 9.58065 13.005H11.9699" stroke="#696969" stroke-miterlimit="10" stroke-linecap="round" stroke-linejoin="round"/>
<path d="M15.2982 12.564V11.1829" stroke="#696969" stroke-miterlimit="10" stroke-linecap="round" stroke-linejoin="round"/>
<path d="M12.6465 12.564V11.1829" stroke="#696969" stroke-miterlimit="10" stroke-linecap="round" stroke-linejoin="round"/>
<path d="M9.52075 6.10203V4.13252C9.52075 2.07687 11.1875 0.410156 13.2431 0.410156H15.6849C16.3964 0.410156 17.034 0.849898 17.287 1.51506L17.4174 1.63603C18.0947 2.26363 18.4792 3.1442 18.4792 4.06733V6.139" stroke="#696969" stroke-miterlimit="10" stroke-linecap="round" stroke-linejoin="round"/>
<path d="M10.6555 6.08273H10.6577C13.9679 6.08273 14.9485 4.66736 14.9485 4.66736C14.9485 4.86183 14.8988 5.02534 14.8353 5.15462C14.7596 5.30933 14.8889 5.48833 15.0601 5.46678C15.7766 5.37562 16.328 5.09277 16.7025 4.82984L17.287 6.08278H17.2892" stroke="#696969" stroke-miterlimit="10" stroke-linecap="round" stroke-linejoin="round"/>
<path d="M17.287 8.14438H17.8394C18.4496 8.14438 18.9443 7.64968 18.9443 7.03948C18.9443 6.42927 18.4496 5.93457 17.8394 5.93457C17.638 5.93457 17.4496 5.98937 17.287 6.08359" stroke="#696969" stroke-miterlimit="10" stroke-linecap="round" stroke-linejoin="round"/>
<path d="M10.6576 8.14438H10.1052C9.49495 8.14438 9.00024 7.64968 9.00024 7.03948C9.00024 6.42927 9.49495 5.93457 10.1052 5.93457C10.3066 5.93457 10.495 5.98937 10.6576 6.08359" stroke="#696969" stroke-miterlimit="10" stroke-linecap="round" stroke-linejoin="round"/>
<path d="M10.6577 6.08252V8.14435C10.6577 9.97501 12.1418 11.459 13.9724 11.459C15.803 11.459 17.287 9.97496 17.287 8.14435V6.08252" stroke="#696969" stroke-miterlimit="10" stroke-linecap="round" stroke-linejoin="round"/>
<path d="M12.6465 12.564L13.9723 13.8899L12.4725 15.3897L11.9697 13.0053L12.6465 12.564Z" stroke="#696969" stroke-miterlimit="10" stroke-linecap="round" stroke-linejoin="round"/>
<path d="M14.6936 19.0821L15.4722 15.3896" stroke="#696969" stroke-miterlimit="10" stroke-linecap="round" stroke-linejoin="round"/>
<path d="M15.2982 12.564L13.9723 13.8899L15.4722 15.3897L15.9749 13.0053L15.2982 12.564Z" stroke="#696969" stroke-miterlimit="10" stroke-linecap="round" stroke-linejoin="round"/>
<path d="M15.975 13.0052L17.3793 14.2337L16.8197 15.9414L17.6136 17.0516L15.7471 19.0821" stroke="#696969" stroke-miterlimit="10" stroke-linecap="round" stroke-linejoin="round"/>
<path d="M11.9698 13.0052L10.5654 14.2337L11.1251 15.9414L10.3312 17.0516L12.1977 19.0821" stroke="#696969" stroke-miterlimit="10" stroke-linecap="round" stroke-linejoin="round"/>
<path d="M24.1373 22.9493V21.292H13.9723V19.0822" stroke="#696969" stroke-miterlimit="10" stroke-linecap="round" stroke-linejoin="round"/>
<path d="M3.80737 22.9493V21.292H13.9724V19.0822" stroke="#696969" stroke-miterlimit="10" stroke-linecap="round" stroke-linejoin="round"/>
<path d="M13.9723 22.9493V21.292" stroke="#696969" stroke-miterlimit="10" stroke-linecap="round" stroke-linejoin="round"/>
<path d="M26.8996 27.5899H21.3751C21.0089 27.5899 20.7122 27.2931 20.7122 26.927V25.0487C20.7122 24.6825 21.0089 24.3857 21.3751 24.3857H26.8996C27.2657 24.3857 27.5625 24.6825 27.5625 25.0487V26.927C27.5625 27.2931 27.2657 27.5899 26.8996 27.5899Z" stroke="#696969" stroke-miterlimit="10" stroke-linecap="round" stroke-linejoin="round"/>
<path d="M13.8841 24.3855H16.7623C17.1282 24.3855 17.4251 24.6825 17.4251 25.0489V26.9268C17.4251 27.2932 17.1282 27.5896 16.7623 27.5896H11.2378C10.8719 27.5896 10.575 27.2932 10.575 26.9268V25.0489C10.575 24.6825 10.8719 24.3855 11.2378 24.3855H11.97" stroke="#696969" stroke-miterlimit="10" stroke-linecap="round" stroke-linejoin="round"/>
<path d="M3.5257 27.5896H6.62484C6.9907 27.5896 7.28766 27.2932 7.28766 26.9268V25.0489C7.28766 24.6825 6.9907 24.3855 6.62484 24.3855H1.10031C0.734453 24.3855 0.4375 24.6825 0.4375 25.0489V26.9268C0.4375 27.2932 0.734453 27.5896 1.10031 27.5896H1.61164" stroke="#696969" stroke-miterlimit="10" stroke-linecap="round" stroke-linejoin="round"/>
</g>
<defs>
<clipPath id="clip0_67_9600">
<rect width="28" height="28" fill="white"/>
</clipPath>
</defs>
</svg>
