<svg width="16" height="16" viewBox="0 0 16 16" fill="none" xmlns="http://www.w3.org/2000/svg">
<path d="M13 2.66671H11V1.66671C11 1.5783 10.9649 1.49352 10.9024 1.43101C10.8399 1.36849 10.7551 1.33337 10.6667 1.33337C10.5783 1.33337 10.4935 1.36849 10.431 1.43101C10.3684 1.49352 10.3333 1.5783 10.3333 1.66671V2.66671H5.66666V1.66671C5.66666 1.5783 5.63154 1.49352 5.56903 1.43101C5.50652 1.36849 5.42173 1.33337 5.33333 1.33337C5.24492 1.33337 5.16014 1.36849 5.09763 1.43101C5.03511 1.49352 4.99999 1.5783 4.99999 1.66671V2.66671H2.99999C2.55813 2.66724 2.13451 2.843 1.82207 3.15545C1.50962 3.46789 1.33386 3.89151 1.33333 4.33337V13C1.33386 13.4419 1.50962 13.8655 1.82207 14.178C2.13451 14.4904 2.55813 14.6662 2.99999 14.6667H13C13.4419 14.6664 13.8656 14.4906 14.1781 14.1782C14.4906 13.8657 14.6663 13.442 14.6667 13V4.33337C14.6663 3.89145 14.4906 3.46774 14.1781 3.15525C13.8656 2.84277 13.4419 2.66706 13 2.66671ZM14 13C14 13.2653 13.8946 13.5196 13.7071 13.7071C13.5196 13.8947 13.2652 14 13 14H2.99999C2.73478 14 2.48042 13.8947 2.29289 13.7071C2.10535 13.5196 1.99999 13.2653 1.99999 13V7.33337H14V13ZM14 6.66671H1.99999V4.33337C1.99999 3.78137 2.44666 3.33337 2.99999 3.33337H4.99999V4.33337C4.99999 4.42178 5.03511 4.50656 5.09763 4.56908C5.16014 4.63159 5.24492 4.66671 5.33333 4.66671C5.42173 4.66671 5.50652 4.63159 5.56903 4.56908C5.63154 4.50656 5.66666 4.42178 5.66666 4.33337V3.33337H10.3333V4.33337C10.3333 4.42178 10.3684 4.50656 10.431 4.56908C10.4935 4.63159 10.5783 4.66671 10.6667 4.66671C10.7551 4.66671 10.8399 4.63159 10.9024 4.56908C10.9649 4.50656 11 4.42178 11 4.33337V3.33337H13C13.2652 3.33337 13.5196 3.43873 13.7071 3.62627C13.8946 3.8138 14 4.06816 14 4.33337V6.66671Z" fill="#EB7203"/>
</svg>
